<?xml version="1.0" encoding="UTF-8" standalone="no"?>
<!DOCTYPE svg PUBLIC "-//W3C//DTD SVG 1.1//EN" "http://www.w3.org/Graphics/SVG/1.1/DTD/svg11.dtd">
<svg width="100%" height="100%" viewBox="0 0 14445 11112" version="1.1" xmlns="http://www.w3.org/2000/svg" xmlns:xlink="http://www.w3.org/1999/xlink" xml:space="preserve" xmlns:serif="http://www.serif.com/" style="fill-rule:evenodd;clip-rule:evenodd;stroke-linejoin:round;stroke-miterlimit:2;">
    <g transform="matrix(5.55556,0,0,5.55556,0,0)">
        <g>
            <rect x="0" y="0" width="2600" height="2000" style="fill:white;fill-rule:nonzero;"/>
            <path d="M1433.66,734.35C1439.15,718.738 1447.43,706.301 1444.89,689.019C1442.7,674.173 1435.88,659.813 1429.95,646.149C1423.41,631.104 1416.16,616.368 1408.25,601.997C1391.25,571.129 1371.42,539.923 1346.92,514.401C1320.12,486.472 1282,471.832 1248.05,454.593C1246.29,453.701 1244.76,456.212 1246.3,457.221C1241.12,487.493 1236.01,518.866 1241.97,549.4C1248.37,582.17 1271.05,608.435 1284.98,638.133C1299.12,668.278 1307.07,699.729 1314.25,732.067C1320.19,758.792 1327.22,786.451 1344.53,808.335C1359.88,827.725 1386.67,845.024 1412.38,842.917C1421.16,842.198 1430.06,838.56 1434.06,830.227C1440.06,817.687 1434.65,799.967 1432.64,786.962C1429.94,769.453 1427.64,751.46 1433.66,734.35Z" style="fill:rgb(84,45,32);fill-rule:nonzero;"/>
            <path d="M1620.37,208.601C1601.54,184.492 1563.25,182.16 1538.21,197.15C1509.39,214.41 1501.45,249.019 1496.57,280.01C1492.4,282.923 1492.02,291.231 1498.49,293.667C1531.95,306.281 1571.82,309.931 1601.76,286.873C1624.34,269.48 1640.17,233.938 1620.37,208.601Z" style="fill:rgb(84,45,32);fill-rule:nonzero;"/>
            <path d="M1227.83,885.015C1198.77,818.982 1172.15,750.824 1160.59,679.268C1148.71,605.751 1154.22,530.596 1140.13,457.083C1128.13,394.435 1097.26,332.276 1032.14,312.828C952.786,289.132 849.63,323.722 805.714,396.037C774.881,446.812 750.504,500.356 741.314,558.591C727.47,646.316 734.967,740.456 713.763,827.045C709.072,846.201 704.065,865.065 699.277,883.918C691.774,945.796 684.498,1004.83 677.826,1053.18C677.589,1054.9 710.606,1061.71 711.339,1062.95C717.498,1152.1 842.244,1178.92 913.223,1188.19C961.964,1194.55 1011.33,1193.74 1059.88,1186.11C1105.34,1178.96 1156.82,1167.52 1194.85,1140.21C1233.45,1112.48 1263.37,1070.07 1286.35,1028.1C1286.58,1028.11 1286.81,1028.1 1287.05,1028.1C1287.93,1028.08 1231.28,892.85 1227.83,885.015Z" style="fill:rgb(250,230,205);fill-rule:nonzero;"/>
            <path d="M1237.82,821.32C1192.56,825.291 1107.96,814.685 1094.93,786.833C1069.52,732.527 1071.56,628.367 1069.84,594.553C1069.41,586.16 1061.52,582.725 1055.26,584.221C1053.31,583.352 1051.03,583.004 1048.48,583.47C1002.17,591.907 957.697,606.752 915.406,627.392C912.122,628.994 910.428,631.441 909.915,634.088C905.098,635.923 901.344,640.604 902.932,647.044C918.458,710.007 936.635,791.748 880.919,841.186C855.381,863.845 727.932,928.885 694.768,943.561C685.108,947.835 688.792,959.412 696.611,962.834C696.958,963.371 697.313,963.907 697.775,964.422C735.567,1006.55 967.354,1217.71 1024.73,1208.82C1074.05,1201.17 1267.64,818.704 1237.82,821.32Z" style="fill:rgb(254,171,131);fill-rule:nonzero;"/>
            <path d="M1027.77,331.473C979.921,308.087 923.363,319.76 878.529,344.677C838.922,366.689 815.416,406.512 812.222,453.339C809.791,488.972 816.448,525.035 826.49,559.006C838.327,599.049 854.967,641.565 878.591,677.44C897.381,705.974 924.124,722.781 949.948,732.167C967.785,738.649 1003.95,737.611 1027.23,723.522C1062.16,702.384 1069.83,669.696 1080.74,632.474C1089.11,603.888 1094.46,486.678 1093.28,456.564C1091.31,406.272 1077.85,355.949 1027.77,331.473Z" style="fill:rgb(254,171,131);fill-rule:nonzero;"/>
            <path d="M812.274,608.546C818.313,623.125 829.046,635.821 839.672,647.442C844.835,653.087 853.791,664.926 862.748,664.961C879.332,665.027 877.135,645.424 873.066,630.525C873.093,629.819 873.048,629.082 872.828,628.284C867.109,607.558 855.935,573.376 830.153,569.218C804.271,565.043 805.732,592.753 812.274,608.546Z" style="fill:rgb(254,171,131);fill-rule:nonzero;"/>
            <path d="M820.983,586.623C830.123,589.911 838.966,593.542 844.679,601.82C851.355,611.493 854.436,624.295 858.461,635.194C859.168,637.108 856.077,637.844 855.375,635.946C851.973,626.735 849.181,616.816 844.652,608.094C839.266,597.717 830.612,593.458 820.075,589.667C818.16,588.979 819.052,585.929 820.983,586.623Z" style="fill:rgb(212,117,93);fill-rule:nonzero;"/>
            <path d="M1090.67,363.708C1078.97,344.931 1061.87,327.392 1038.96,324.174C1037.48,323.966 1036.01,323.844 1034.54,323.772C955.891,300.604 865.368,318.653 812.765,385.591C801.039,400.513 793.071,417.367 790.834,436.316C787.78,462.175 794.128,487.787 795.532,513.522C797.001,540.465 789.898,565.873 783.617,591.789C777.463,617.175 774.803,641.933 776.313,668.073C779.871,729.673 789.155,791.354 795.855,852.687C796.189,855.744 798.236,857.644 800.594,858.388C801.133,860.583 801.574,862.79 802.331,864.958C804.954,872.476 816.476,868.731 814.362,861.055C798.021,801.683 809.884,746.133 839.075,693.367C850.952,671.898 863.789,650.396 870.231,626.512C877.716,598.768 871.193,569.782 878.144,542.131C891.449,489.206 941.936,463.855 987.217,442.961C1002.33,435.988 1015.64,426.816 1026.49,415.746C1030.96,411.184 1038.83,413.564 1039.58,419.907C1039.59,420.021 1039.61,420.135 1039.62,420.25C1042.48,445.377 1050.07,513.493 1091.58,527.399C1103.83,531.503 1090.83,562.634 1105.48,547.688C1106.38,546.771 1106.88,545.774 1107.12,544.771C1109.15,543.943 1110.65,542.094 1110.45,539.177C1108.18,505.997 1112,474.097 1113.73,441.075C1115.23,412.63 1105.55,387.595 1090.67,363.708Z" style="fill:rgb(250,230,205);fill-rule:nonzero;"/>
            <path d="M1097.97,443.165C1097.08,441.323 1094.34,442.932 1095.23,444.768C1106.63,468.5 1111.62,494.366 1110.01,520.64C1109.88,522.681 1113.06,522.674 1113.18,520.64C1114.84,493.784 1109.62,467.412 1097.97,443.165Z" style="fill:rgb(209,176,140);fill-rule:nonzero;"/>
            <path d="M1141.18,755.705C1134.23,740.807 1127.24,725.828 1122.57,710.024C1117.98,694.514 1116.98,679.006 1116.73,662.936C1116.24,631.955 1110.18,602.124 1100.58,572.721C1099.95,570.786 1096.88,571.614 1097.52,573.565C1102.51,588.866 1106.79,604.398 1109.64,620.25C1112.72,637.377 1113.28,654.354 1113.7,671.688C1114.45,702.584 1125.54,729.677 1138.44,757.308C1139.3,759.159 1142.04,757.547 1141.18,755.705Z" style="fill:rgb(209,176,140);fill-rule:nonzero;"/>
            <path d="M1101.38,510.946C1077.32,521.091 1074.55,556.946 1073.91,578.438C1073.88,579.264 1074.01,579.992 1074.21,580.671C1073.78,596.109 1076.29,615.676 1092.39,611.685C1101.08,609.529 1106.98,595.906 1110.65,589.199C1118.23,575.392 1125.65,560.516 1128.06,544.922C1130.68,528.028 1125.54,500.76 1101.38,510.946Z" style="fill:rgb(254,171,131);fill-rule:nonzero;"/>
            <path d="M773.171,504.628C762.037,535.485 754.454,568.08 756.975,601.073C758.258,617.857 761.935,634.337 763.826,651.047C765.656,667.212 765.733,683.516 764.655,699.737C760.351,764.514 738.334,827.298 740.026,892.615C741.048,932.092 751.518,971.305 744.797,1010.79C744.456,1012.79 747.537,1013.57 747.88,1011.55C753.615,977.867 747.093,944.318 744.253,910.699C741.433,877.304 744.971,844.236 750.583,811.309C756.005,779.491 762.938,747.896 766.411,715.774C768.066,700.467 768.918,685.055 768.381,669.659C767.788,652.641 764.791,636.001 762.308,619.196C756.507,579.917 762.864,542.502 776.254,505.396C776.949,503.472 773.858,502.723 773.171,504.628Z" style="fill:rgb(209,176,140);fill-rule:nonzero;"/>
            <path d="M1114.41,525.685C1106.31,531.043 1098.58,536.666 1094.99,546.061C1090.79,557.04 1090.83,570.207 1089.5,581.749C1089.27,583.776 1092.44,583.759 1092.68,581.749C1093.8,571.994 1094.17,561.696 1096.5,552.15C1099.28,540.792 1106.67,534.605 1116.01,528.427C1117.71,527.304 1116.12,524.552 1114.41,525.685Z" style="fill:rgb(212,117,93);fill-rule:nonzero;"/>
            <path d="M974.459,738.091C953.122,738.091 933.785,731.623 917.298,718.78C916.577,718.217 916.447,717.177 917.008,716.455C917.568,715.731 918.61,715.604 919.333,716.166C952.26,741.813 990.285,736.244 1016.38,727.053C1049.69,715.325 1062.61,681.599 1066.62,667.644C1066.87,666.765 1067.78,666.259 1068.67,666.51C1069.55,666.762 1070.06,667.679 1069.8,668.559C1065.65,683.008 1052.24,717.938 1017.48,730.178C1002.48,735.461 988.059,738.091 974.459,738.091Z" style="fill:rgb(194,112,68);fill-rule:nonzero;"/>
            <path d="M1053.57,565.377C1053.04,558.516 1050.2,544.364 1040.81,543.61C1032.72,542.959 1028.03,545.724 1025.93,552.995C1023.59,561.116 1024.69,569.951 1028.98,577.449C1030.23,579.646 1031.8,581.776 1034.04,583.263C1046.7,591.655 1054.12,574.175 1053.62,565.998C1053.6,565.798 1053.59,565.591 1053.57,565.377Z" style="fill:rgb(59,34,34);fill-rule:nonzero;"/>
            <path d="M923.75,582.066C923.238,575.288 920.501,561.306 911.454,560.56C903.658,559.917 899.14,562.649 897.121,569.833C894.865,577.856 895.924,586.585 900.052,593.994C901.261,596.165 902.769,598.269 904.931,599.738C917.129,608.029 924.273,590.759 923.791,582.679C923.779,582.482 923.766,582.278 923.75,582.066Z" style="fill:rgb(59,34,34);fill-rule:nonzero;"/>
            <path d="M966.429,618.641C966.261,618.641 966.089,618.615 965.919,618.56C958.058,616.022 953.018,611.81 950.94,606.042C947.315,595.981 954.15,585.059 954.443,584.598C954.937,583.828 955.962,583.603 956.727,584.09C957.5,584.58 957.729,585.603 957.24,586.375C957.177,586.474 950.98,596.414 954.062,604.934C955.777,609.678 960.109,613.203 966.938,615.409C967.809,615.689 968.286,616.622 968.004,617.494C967.778,618.194 967.129,618.641 966.429,618.641Z" style="fill:rgb(194,112,68);fill-rule:nonzero;"/>
            <path d="M975.956,610.43C975.703,610.43 975.446,610.372 975.207,610.249C974.395,609.835 974.068,608.849 974.478,608.035C974.637,607.718 978.497,600.279 988.926,600.279C989.841,600.279 990.583,601.02 990.583,601.936C990.583,602.851 989.841,603.592 988.926,603.592C980.603,603.592 977.559,609.289 977.432,609.531C977.138,610.102 976.557,610.43 975.956,610.43Z" style="fill:rgb(194,112,68);fill-rule:nonzero;"/>
            <path d="M995.271,643.407C987.493,640.113 975.789,639.377 967.819,642.689C963.297,644.568 959.218,651.278 961.516,655.231C966.226,663.337 988.043,656.808 994.638,654.772C1001.72,652.587 1002.23,646.353 995.271,643.407Z" style="fill:white;fill-rule:nonzero;"/>
            <path d="M1067.65,508.729C1063.1,493.233 1044.95,485.566 1030.38,483.294C1019.99,481.673 1001.39,482.574 993.598,495.055C984.54,509.562 998.409,525.877 1008.86,524.875C1016.65,524.128 1024.29,522.203 1031.99,520.942C1041.31,519.418 1049.74,521.804 1058.87,521.727C1065.82,521.668 1069.73,515.811 1067.65,508.729Z" style="fill:rgb(250,230,205);fill-rule:nonzero;"/>
            <path d="M862.269,545.121C861.808,537.782 864.871,528.579 867.857,524.403C872.684,517.654 879.309,511.947 886.4,507.75C895.24,502.518 912.306,496.485 923.418,504.563C931.084,510.137 932.245,520.766 927.93,528.814C923.949,536.24 914.838,538.331 907.307,540.109C897.674,542.384 888.788,545.724 879.728,549.755C871.137,553.577 863.083,558.059 862.269,545.121Z" style="fill:rgb(250,230,205);fill-rule:nonzero;"/>
            <path d="M703.475,1044.17C691.537,990.802 546.687,1031.1 530.393,1081.4C507.541,1151.95 413.26,1476.02 407.814,1548.28C403.337,1607.68 412.969,1673.15 460.041,1714.63C517.421,1765.2 601.213,1739.47 664.715,1714.93C671.095,1712.46 672.314,1705.54 670.113,1700.75C678.177,1690.31 682.054,1677.4 683.866,1663.48C687.619,1634.63 686.825,1604.79 686.22,1575.77C684.946,1514.74 679.629,1453.82 680.211,1392.75C680.803,1330.58 688.265,1268.8 695.446,1207.13C698.921,1177.29 702.335,1147.43 704.849,1117.49C706.891,1093.16 708.857,1068.23 703.475,1044.17Z" style="fill:rgb(69,115,80);fill-rule:nonzero;"/>
            <path d="M506.593,1440.35C538.078,1432.99 569.947,1427.41 601.576,1420.73C628.897,1414.96 655.027,1405.9 680.213,1394.25C680.217,1393.75 680.206,1393.25 680.211,1392.75C680.803,1330.58 688.265,1268.8 695.446,1207.13C698.921,1177.29 702.335,1147.43 704.849,1117.49C706.891,1093.16 708.857,1068.23 703.475,1044.17C691.537,990.802 546.687,1031.1 530.394,1081.4C512.586,1136.37 451.418,1345.25 422.695,1469C448.974,1456.61 476.988,1447.27 506.593,1440.35Z" style="fill:rgb(69,115,80);fill-rule:nonzero;"/>
            <path d="M1545.65,1130.61C1544.28,1121.15 1542.79,1111.71 1541.27,1102.27C1535.36,1065.64 1528.33,1029.22 1520.1,993.053C1511.25,922.42 1471.03,754.09 1318.54,791.396C1294.34,797.318 1270.03,802.806 1245.86,808.891C1241.88,809.895 1237.9,810.917 1233.92,811.958C1230.3,812.905 1227.01,814.868 1224.46,817.612C1188.01,856.908 1155.22,899.372 1120.96,940.595C1091.57,975.946 1061.63,1013.03 1028.57,1045.02C1004.18,1068.61 969.598,1094.48 934.857,1076.43C918.734,1068.05 906.596,1053.57 895.878,1039.28C881.54,1020.16 867.473,1001.41 851.31,983.737C827.18,957.355 801.814,931.557 783.02,901.199C780.86,897.71 776.611,896.118 772.743,897.487C741.37,908.589 710.283,920.475 679.564,933.293C651.038,945.197 636.291,949.766 613.97,965.108C613.807,965.22 613.633,965.347 613.469,965.46C612.076,966.422 610.666,967.409 609.208,968.46C607.567,969.643 605.883,970.883 604.146,972.19C601.768,973.979 599.479,975.827 597.228,977.701C596.677,978.16 596.129,978.621 595.585,979.084C545.348,1021.94 526.717,1085.65 511.076,1148.17C510.469,1150.6 510.78,1152.72 511.637,1154.5C508.749,1158.63 508.543,1164.97 513.943,1168.59C542.079,1187.45 570.451,1206.47 594.184,1230.86C620.805,1258.22 632.288,1321.61 638.059,1357.87C648.43,1423.01 614.698,1691.87 604.587,1769.29C603.079,1780.84 611.611,1791.28 623.232,1792.05C752.276,1800.6 1147.46,1795.76 1242.7,1780.53C1315.42,1768.91 1382.35,1450.56 1407.63,1324.85C1407.66,1324.7 1407.69,1324.54 1407.72,1324.39C1409.55,1315.27 1411.2,1306.84 1412.66,1299.23C1412.73,1298.85 1412.8,1298.47 1412.87,1298.09C1413.32,1295.74 1413.76,1293.45 1414.17,1291.27C1414.64,1288.84 1415.05,1286.67 1415.44,1284.57C1415.54,1284.03 1415.64,1283.53 1415.74,1283.01C1416.06,1281.3 1416.37,1279.65 1416.66,1278.08C1417.04,1276.08 1417.39,1274.19 1417.72,1272.43C1419.28,1264.18 1423.71,1256.77 1430.23,1251.48C1434.69,1247.86 1541.81,1141.4 1541.87,1140.05C1544.48,1137.96 1546.24,1134.7 1545.65,1130.61Z" style="fill:rgb(69,115,80);fill-rule:nonzero;"/>
            <path d="M980.112,974.572C964.586,969.331 946.895,963.157 930.292,967.435C902.476,974.603 902.579,1005.44 893.117,1027.59C817.722,1204.09 673.356,1322.34 608.172,1376C556.381,1418.6 496.632,1465.59 491.734,1536.74C489.217,1573.3 507.729,1608 529.609,1636.67C544.883,1656.69 595.367,1695.55 715.195,1567.81C751.505,1529.1 784.732,1487.75 817.281,1446.01C882.543,1362.31 999.444,1161.64 1024.77,989.129C1025.38,985.017 997.469,980.431 980.112,974.572Z" style="fill:rgb(254,171,131);fill-rule:nonzero;"/>
            <path d="M859.199,1112.37C852.654,1110.27 846.505,1110.43 841.928,1115.56C750.011,1218.53 651.656,1330.64 601.82,1371.66C550.029,1414.27 466.956,1476.99 462.058,1548.14C459.541,1584.7 476.201,1735.31 511.89,1740.51C775.443,1778.94 964.353,1337.29 1011.85,1252.31C997.084,1233.4 969.169,1147.6 859.199,1112.37Z" style="fill:rgb(69,115,80);fill-rule:nonzero;"/>
            <path d="M1000.23,1095.53C1012.63,1062.6 1018.63,1029.89 1024.77,989.129C1025.08,987.092 1038.38,948.897 1028.71,917.585C1024.75,904.739 1018.61,892.836 1012.64,880.83C1011.14,877.983 1009.64,874.887 1008.17,871.337C1007.93,870.8 1007.67,870.271 1007.44,869.731C1004.49,862.82 1002.46,855.702 1001.11,848.464C1000.81,847.16 1000.51,845.838 1000.23,844.449C996.255,825.245 1002.25,806.892 1003.81,787.6C1004.5,779.168 1008.02,762.284 1007.52,753.832C1006.58,737.945 995.084,739.904 995.326,738.845C999.132,722.163 1009.16,695.463 987.396,691.563C990.191,679.447 988.226,668.913 974.048,666.774C961.954,664.95 954.633,674.324 948.241,682.695C943.872,688.417 939.554,694.176 935.232,699.931C939.074,694.815 930.813,683.155 918.316,691.096C910.195,696.256 874.046,731.453 866.072,750.811C845.51,800.731 845.259,845.861 861.404,879.276C879.459,916.647 885.531,935.687 896.321,966.003C906.909,995.75 881.713,1053.58 873.106,1070.13C891.751,1074.2 963.148,1092.9 1000.23,1095.53Z" style="fill:rgb(254,171,131);fill-rule:nonzero;"/>
            <path d="M1197,1361.84C1196.96,1336.53 1196.13,1311.2 1194.45,1285.94C1193.81,1276.28 1192.72,1267.4 1187.2,1259.2C1181.89,1251.33 1189.1,1244.96 1180.47,1241.24C1156.85,1231.05 1146.82,1243.31 1143.31,1251.35C1139.62,1259.81 1138.06,1269.42 1136.06,1278.39C1133.66,1289.21 1131.59,1300.11 1129.84,1311.06C1123.37,1351.71 1120.03,1394.75 1124.46,1435.8C1125.82,1448.35 1125.88,1456.3 1143.52,1476.8C1152.07,1486.74 1166.32,1473.08 1176.19,1465.46C1188.44,1456 1193.12,1440.69 1194.94,1425.9C1197.54,1404.82 1197.04,1383.05 1197,1361.84Z" style="fill:rgb(69,115,80);fill-rule:nonzero;"/>
            <path d="M1044.45,1119.97C997.965,1069.71 944.97,1077.83 926.953,1085.91C898.438,1098.68 869.911,1133.6 860.559,1145.76C858.059,1149.01 857.141,1153.31 858.446,1157.19C862.313,1168.71 876.17,1167.75 885.628,1164.95C890.968,1163.37 896.249,1161.06 900.882,1157.95C907.854,1153.27 920.568,1140.1 921.355,1140.07C922.929,1140 923.493,1140.88 922.342,1142C913.322,1150.75 901.744,1161.84 893.807,1171.58C885.755,1181.47 880.735,1194.77 890.689,1205.32C896.537,1211.52 903.628,1209.4 911.982,1206.63C921.657,1203.42 929.831,1198.12 936.708,1191.24C942.504,1185.44 943.792,1190.69 939.699,1199.51C935.854,1207.79 934.673,1223.66 936.615,1232.62C940.101,1248.7 924.015,1238.82 917.053,1236.08C911.527,1233.9 905.254,1228.78 899.341,1228.15C889.12,1227.06 877.424,1227.09 871.424,1240.46C865.545,1253.55 951.378,1311.37 978.349,1325.95C1003.95,1339.79 1030.43,1337.27 1057.41,1331.36C1061.73,1330.41 1066.23,1331.36 1069.85,1333.91C1084.59,1344.29 1160.43,1399.97 1176.1,1408.92C1180.45,1411.4 1216.71,1302.8 1204.54,1291.16C1174.31,1262.27 1164.82,1250.12 1044.45,1119.97Z" style="fill:rgb(254,171,131);fill-rule:nonzero;"/>
            <path d="M1527.78,1634.56C1575.85,1590.49 1580.1,1512.42 1582.36,1470.93C1588.36,1360.68 1570.77,1249.64 1554.09,1140.92C1543.21,1070.02 1534.89,995.021 1512.09,926.683C1498.96,887.335 1481.09,847.788 1444.9,818.295C1415.69,797.869 1376.39,814.092 1356.48,841.428C1342.3,860.915 1265.51,1098.54 1266.98,1153.07C1268.41,1205.81 1276.16,1259.17 1288.19,1310.51C1302.92,1373.35 1378.36,1546.25 1396.59,1572.3C1408.73,1589.64 1422.8,1609.69 1441.8,1620.13C1464.75,1632.75 1500.99,1638.29 1527.78,1634.56Z" style="fill:rgb(69,115,80);fill-rule:nonzero;"/>
            <path d="M1613.18,648.945C1561.89,574.252 1518.79,494.275 1484.91,410.217C1484.81,409.951 1484.67,409.728 1484.53,409.491C1484.74,404.404 1476.91,400.951 1473.46,406.367L1411.9,502.958L1381.91,550.016C1373.33,563.475 1362.07,577.09 1357.82,592.678C1356.74,596.644 1372.02,611.656 1375.16,612.165C1394.5,604.431 1409.56,638.628 1423.82,666.108C1433.64,685.044 1449.84,717.619 1460.86,739.012C1544.6,722.731 1608.29,658.62 1613.18,648.945Z" style="fill:rgb(173,89,53);fill-rule:nonzero;"/>
            <path d="M1303.91,250.644C1268.7,260.236 1218.83,303.499 1196.42,332.417C1175.12,359.891 1158.51,398.362 1166.94,433.597C1171.46,452.464 1183.96,463.943 1198.69,475.461C1209.05,483.564 1221.47,505.403 1236.81,502.162C1251.8,498.994 1256.15,475.176 1259.21,463.113C1264.36,442.72 1266.41,421.688 1268.86,400.845C1271.83,375.549 1275.22,349.233 1286.66,326.127C1295.6,308.057 1304.4,244.688 1303.91,250.644Z" style="fill:rgb(84,45,32);fill-rule:nonzero;"/>
            <path d="M1402.18,1348.78C1326.23,1316.86 1258.23,1276.8 1177.23,1239.75C1173.13,1237.87 1153.94,1238.13 1156.92,1244.43C1169.6,1271.3 1169.66,1312.85 1168.03,1341.88C1164.94,1396.9 1144.32,1437.11 1134.86,1452.91C1132.09,1457.52 1132.47,1463.37 1135.85,1467.56C1221.72,1574.06 1485,1788.31 1561.7,1577.81C1576.81,1536.33 1466.56,1375.85 1402.18,1348.78Z" style="fill:rgb(69,115,80);fill-rule:nonzero;"/>
            <path d="M1511.03,315.224C1469.71,220.224 1342.21,252.113 1277.29,301.185C1256.46,316.907 1239.4,336.537 1229.21,360.803C1215.83,392.723 1212.28,427.408 1213.1,462.028C1206.94,469.207 1199.32,478.259 1193.41,485.627C1187.38,493.187 1180.67,503.954 1182.26,513.959C1184.68,529.205 1202.08,528.855 1216.22,529.014C1217.68,529.014 1218.88,530.126 1219.04,531.587C1219.61,536.574 1220.25,541.814 1221.01,547.15C1222.28,556.234 1223.9,565.636 1226.19,574.72C1233.33,603.306 1247.06,629.001 1277.55,633.257C1301.66,636.624 1387.54,611.437 1403.48,599.399C1424.83,583.295 1428.42,557.918 1431.12,533.175C1433.79,508.56 1437.21,484.071 1441.44,459.678C1490.58,424.231 1538.76,379.002 1511.03,315.224Z" style="fill:rgb(173,89,53);fill-rule:nonzero;"/>
            <path d="M895.96,799.684C894.954,799.63 894.254,798.849 894.306,797.936C895.674,773.282 901.892,751.241 912.785,732.426C916.533,725.953 932.796,700.287 934.537,698.099C935.108,697.38 936.148,697.266 936.865,697.832C937.581,698.401 937.701,699.443 937.131,700.16C935.667,702 919.597,727.275 915.652,734.086C905.021,752.446 898.951,773.99 897.612,798.12C897.563,799.001 896.832,799.684 895.96,799.684Z" style="fill:rgb(194,112,68);fill-rule:nonzero;"/>
            <path d="M939.019,806.301C937.964,806.217 937.289,805.415 937.368,804.502C939.724,777.084 943.624,756.798 956.578,734.24C963.292,722.552 977.655,700.907 986.112,690.518C986.691,689.809 987.732,689.703 988.441,690.278C989.151,690.856 989.258,691.899 988.68,692.607C980.319,702.88 966.102,724.309 959.451,735.889C946.801,757.916 942.985,777.832 940.667,804.787C940.593,805.649 939.87,806.301 939.019,806.301Z" style="fill:rgb(194,112,68);fill-rule:nonzero;"/>
            <path d="M973.105,810.768C973.045,810.768 972.984,810.765 972.921,810.759C972.012,810.658 971.357,809.84 971.457,808.93L971.645,807.229C972.989,795.014 974.513,781.167 979.334,769.478C982.254,762.408 990.22,745.566 993.837,738.122C994.234,737.298 995.228,736.955 996.049,737.354C996.873,737.754 997.215,738.746 996.816,739.567C993.216,746.982 985.288,763.737 982.398,770.743C977.754,781.997 976.323,795.009 974.938,807.592L974.75,809.295C974.657,810.141 973.938,810.768 973.105,810.768Z" style="fill:rgb(194,112,68);fill-rule:nonzero;"/>
            <path d="M1010.99,1061.16C1010.87,1061.16 1010.74,1061.14 1010.61,1061.11C1009.72,1060.9 1009.17,1060.01 1009.38,1059.12C1016.99,1026.96 1022.72,993.461 1023.8,987.074C1023.97,986.037 1024.27,985.012 1024.72,983.938C1036.65,955.11 1029.51,911.59 1015.64,890.561C1001.85,869.662 999.048,849.143 997.704,839.281C997.545,838.12 997.406,837.093 997.269,836.213C996.535,831.497 999.331,811.83 1002.29,791.009C1004.78,773.521 1007.35,755.438 1007.24,749.589C1007.18,746.492 1006.24,744.15 1004.45,742.626C1001.03,739.728 995.616,740.478 995.564,740.483C994.988,740.58 994.401,740.339 994.034,739.879C993.667,739.422 993.57,738.804 993.778,738.256C1002.71,714.759 1000.42,703.75 996.934,698.652C993.282,693.319 987.632,693.221 987.393,693.219C986.899,693.216 986.431,692.992 986.118,692.611C985.806,692.229 985.675,691.728 985.77,691.244C987.199,683.954 986.485,678.196 983.648,674.131C980.478,669.591 975.744,668.789 975.697,668.781C961.728,665.2 946.181,687.623 940.329,696.066C937.798,699.72 937.416,700.291 936.086,699.909C935.407,699.716 934.886,699.04 934.848,698.335C934.716,695.981 933.724,694.078 931.899,692.672C929.428,690.769 925.676,690.038 922.112,690.773C916.177,691.993 910.844,698.181 906.558,703.155L905.502,704.378C904.897,705.072 903.855,705.14 903.165,704.542C902.474,703.941 902.401,702.895 903.001,702.204L904.049,700.993C908.663,695.639 914.404,688.975 921.445,687.529C925.924,686.608 930.705,687.571 933.919,690.047C935.498,691.262 936.658,692.777 937.364,694.527C937.445,694.411 937.526,694.294 937.605,694.178C943.816,685.217 960.334,661.416 976.37,665.541C976.468,665.551 982.398,666.555 986.364,672.235C989.489,676.713 990.485,682.718 989.333,690.108C991.875,690.562 996.375,692.019 999.623,696.716C1005.17,704.738 1004.54,718.314 997.745,737.09C1000.17,737.161 1003.79,737.722 1006.59,740.101C1009.14,742.267 1010.47,745.438 1010.55,749.528C1010.67,755.64 1008.19,773.047 1005.57,791.477C1002.91,810.225 999.884,831.474 1000.54,835.704C1000.68,836.601 1000.83,837.649 1000.99,838.833C1002.3,848.452 1005.03,868.467 1018.4,888.737C1033.04,910.917 1040.3,954.972 1027.78,985.204C1027.43,986.043 1027.2,986.834 1027.06,987.621C1025.99,994.029 1020.24,1027.62 1012.6,1059.88C1012.42,1060.64 1011.74,1061.16 1010.99,1061.16Z" style="fill:rgb(194,112,68);fill-rule:nonzero;"/>
            <path d="M890.771,1028.35C890.595,1028.35 890.414,1028.32 890.238,1028.26C889.373,1027.96 888.908,1027.02 889.205,1026.16L890.143,1023.42C894.021,1012.17 899.881,995.158 897.243,982.589C886.743,932.554 853.989,864.512 853.659,863.831C853.261,863.008 853.605,862.016 854.429,861.618C855.258,861.224 856.244,861.566 856.642,862.388C856.973,863.074 889.9,931.474 900.484,981.91C903.311,995.374 897.271,1012.9 893.274,1024.5L892.339,1027.22C892.104,1027.91 891.46,1028.35 890.771,1028.35Z" style="fill:rgb(194,112,68);fill-rule:nonzero;"/>
            <path d="M900.882,1159.61C900.415,1159.61 899.951,1159.41 899.623,1159.03C899.029,1158.33 899.111,1157.29 899.807,1156.69C931.942,1129.24 967.083,1103.23 1012.19,1112.75C1013.09,1112.94 1013.66,1113.82 1013.47,1114.72C1013.28,1115.61 1012.41,1116.19 1011.51,1115.99C972.137,1107.68 940.402,1126.37 901.958,1159.21C901.646,1159.47 901.264,1159.61 900.882,1159.61Z" style="fill:rgb(194,112,68);fill-rule:nonzero;"/>
            <path d="M946.015,1188.8C945.563,1188.8 945.115,1188.62 944.789,1188.26C944.174,1187.58 944.224,1186.53 944.902,1185.92C946.595,1184.38 986.804,1148.43 1023.33,1162.48C1024.18,1162.8 1024.61,1163.76 1024.28,1164.62C1023.95,1165.47 1022.99,1165.89 1022.14,1165.57C987.504,1152.24 947.527,1188.01 947.127,1188.37C946.811,1188.66 946.413,1188.8 946.015,1188.8Z" style="fill:rgb(194,112,68);fill-rule:nonzero;"/>
            <path d="M957.062,1254.4C953.771,1254.4 950.511,1253.65 947.565,1252.16C942.647,1249.68 939.102,1245.39 937.583,1240.08C937.332,1239.2 937.842,1238.28 938.72,1238.03C939.614,1237.79 940.517,1238.29 940.769,1239.17C942.029,1243.58 944.973,1247.14 949.059,1249.21C953.484,1251.44 958.765,1251.7 963.558,1249.91C967.046,1248.61 968.496,1245.14 970.029,1241.47C970.404,1240.58 970.776,1239.69 971.174,1238.84C976.273,1227.97 982.634,1216.94 994.557,1209.86C1003.94,1204.29 1015.51,1200.53 1028.95,1198.7C1029.87,1198.57 1030.79,1198.46 1031.71,1198.36C1037.8,1197.67 1043.96,1197.54 1049.92,1197.41L1053.24,1197.34C1054.17,1197.3 1054.91,1198.04 1054.93,1198.95C1054.95,1199.87 1054.23,1200.63 1053.32,1200.65L1049.99,1200.72C1044.11,1200.85 1038.02,1200.97 1032.08,1201.65C1031.19,1201.75 1030.29,1201.86 1029.39,1201.98C1016.4,1203.75 1005.25,1207.36 996.248,1212.71C985.096,1219.33 979.048,1229.86 974.173,1240.25C973.794,1241.06 973.442,1241.9 973.086,1242.75C971.428,1246.72 969.549,1251.21 964.716,1253.01C962.236,1253.94 959.639,1254.4 957.062,1254.4Z" style="fill:rgb(194,112,68);fill-rule:nonzero;"/>
            <path d="M1076.99,1287.06C1076.86,1287.06 1076.74,1287.05 1076.61,1287.02C1050.42,1280.86 1048.41,1265.28 1048.77,1258.87C1048.86,1257.2 1047.96,1255.69 1046.49,1255.02C1020.41,1243.18 1012.23,1255.78 1006.25,1264.99C1004.41,1267.83 1002.82,1270.29 1000.91,1271.49C996.708,1274.13 990.325,1274.19 984.649,1271.65C978.599,1268.94 974.513,1263.74 973.439,1257.4C971.014,1243.08 979.889,1222.38 984.414,1218.03C985.075,1217.4 986.122,1217.41 986.755,1218.07C987.39,1218.73 987.369,1219.78 986.71,1220.42C982.789,1224.19 974.532,1244.01 976.706,1256.85C977.917,1264.01 983.051,1267.3 986.003,1268.62C990.623,1270.69 995.907,1270.72 999.142,1268.68C1000.43,1267.87 1001.84,1265.7 1003.48,1263.18C1009.35,1254.13 1019.18,1238.97 1047.86,1252.01C1050.59,1253.24 1052.24,1256.01 1052.07,1259.05C1051.69,1265.98 1054.48,1278.41 1077.37,1283.79C1078.26,1284 1078.81,1284.89 1078.6,1285.78C1078.42,1286.55 1077.74,1287.06 1076.99,1287.06Z" style="fill:rgb(194,112,68);fill-rule:nonzero;"/>
            <path d="M863.5,1143.66C863.137,1143.66 862.771,1143.54 862.466,1143.29C861.753,1142.72 861.636,1141.68 862.209,1140.96C880.323,1118.34 896.014,1102.25 908.848,1093.14C940.198,1070.88 970.849,1077.63 1002.11,1087.19C1002.99,1087.46 1003.48,1088.39 1003.21,1089.26C1002.94,1090.14 1002.02,1090.63 1001.14,1090.36C969.541,1080.69 940.928,1074.43 910.767,1095.84C898.183,1104.77 882.715,1120.65 864.793,1143.04C864.467,1143.44 863.986,1143.66 863.5,1143.66Z" style="fill:rgb(194,112,68);fill-rule:nonzero;"/>
            <path d="M897.312,500.119C884.313,512.899 876.786,529.456 875.611,547.643C875.479,549.684 878.656,549.675 878.787,547.643C879.908,530.298 887.167,514.547 899.558,502.365C901.018,500.93 898.771,498.684 897.312,500.119Z" style="fill:rgb(209,176,140);fill-rule:nonzero;"/>
            <path d="M1061.76,360.881C1061.18,358.928 1058.11,359.76 1058.7,361.726C1063.68,378.401 1054.95,396.831 1038.67,403.236C1036.79,403.976 1037.6,407.048 1039.51,406.299C1057.37,399.271 1067.28,379.354 1061.76,360.881Z" style="fill:rgb(209,176,140);fill-rule:nonzero;"/>
            <path d="M851.434,670.836C843.299,702.383 820.323,727.368 811.452,758.597C806.364,776.51 807.583,795.419 804.274,813.647C800.799,832.789 794.059,851.064 784.622,868.056C783.628,869.845 786.371,871.449 787.364,869.66C796.23,853.696 802.819,836.6 806.526,818.697C810.41,799.943 809.113,780.399 813.862,761.853C822.135,729.554 846.156,704.027 854.497,671.681C855.007,669.7 851.945,668.855 851.434,670.836Z" style="fill:rgb(209,176,140);fill-rule:nonzero;"/>
            <path d="M1157.97,1400.5C1153.97,1420.37 1148.34,1439.78 1141.09,1458.71C1140.36,1460.62 1143.43,1461.44 1144.16,1459.55C1151.41,1440.63 1157.03,1421.22 1161.03,1401.35C1161.43,1399.35 1158.37,1398.5 1157.97,1400.5Z" style="fill:rgb(31,12,13);fill-rule:nonzero;"/>
            <path d="M1321.78,1619.31C1274.75,1589.74 1227.37,1559.94 1186.16,1522.42C1166.75,1504.75 1146.09,1485.13 1134.32,1461.31C1121,1434.33 1123.72,1403.53 1126.51,1374.55C1126.7,1372.51 1123.52,1372.53 1123.33,1374.55C1120.65,1402.37 1118.06,1431.76 1129.38,1458.15C1139.96,1482.81 1160.53,1502.9 1179.83,1520.9C1222.15,1560.38 1271.37,1591.36 1320.17,1622.05C1321.91,1623.14 1323.5,1620.4 1321.78,1619.31Z" style="fill:rgb(31,12,13);fill-rule:nonzero;"/>
            <path d="M1480.34,1404.62C1444.65,1374.5 1404.18,1351.06 1362.74,1329.81C1343.64,1320.01 1324.4,1310.48 1305.13,1301C1299.15,1254.81 1299.87,1208.09 1307.38,1162.12C1307.71,1160.12 1304.65,1159.26 1304.32,1161.28C1296.85,1206.99 1295.99,1253.4 1301.77,1299.34C1298.91,1297.94 1296.06,1296.52 1293.19,1295.11C1292.28,1295.07 1283.51,1290.63 1280.06,1288.67C1261.36,1279.54 1242.66,1270.44 1224,1261.27C1210.71,1254.73 1197.42,1248.2 1184.13,1241.66C1176.59,1237.96 1167.21,1231.67 1159.01,1236.93C1157.3,1238.04 1158.89,1240.79 1160.61,1239.68C1168.52,1234.6 1179.73,1243.03 1186.8,1246.51C1193.44,1249.77 1200.09,1253.04 1206.73,1256.31C1220.97,1263.31 1235.21,1270.31 1249.44,1277.31C1261.21,1283.1 1316.88,1310.45 1331.83,1317.84C1383.07,1343.17 1434.19,1369.81 1478.09,1406.87C1479.65,1408.18 1481.9,1405.95 1480.34,1404.62Z" style="fill:rgb(31,12,13);fill-rule:nonzero;"/>
            <path d="M1475.49,1355.89C1442.78,1338.56 1406.76,1329 1369.76,1327.83C1367.72,1327.77 1367.72,1330.95 1369.76,1331.01C1406.21,1332.16 1441.66,1341.56 1473.88,1358.63C1475.69,1359.59 1477.29,1356.85 1475.49,1355.89Z" style="fill:rgb(65,36,38);fill-rule:nonzero;"/>
            <path d="M971.091,1325.47C943.712,1391.41 903.502,1451.13 861.683,1508.65C823.116,1561.7 781.204,1612.99 731.449,1656.01C703.244,1680.4 672.552,1701.76 639.384,1718.84C637.565,1719.78 639.17,1722.52 640.986,1721.59C699.865,1691.27 750.238,1647.43 794.2,1598.29C839.774,1547.36 880.39,1491.14 917.11,1433.55C938.92,1399.35 958.586,1363.81 974.154,1326.31C974.937,1324.43 971.865,1323.61 971.091,1325.47Z" style="fill:rgb(31,12,13);fill-rule:nonzero;"/>
            <path d="M1821.28,704.767C1766.68,662.615 1610.41,568.458 1608.67,568.794C1606.38,569.238 1428.07,726.742 1415.17,757.825C1357.76,896.176 1397.53,1061.75 1422.25,1199C1446.98,1336.26 1613.18,1513.73 1707.98,1524.23C1730.42,1526.72 1735.36,1560.44 1753.74,1574.23C1807.22,1614.36 1886.8,1601.11 1949.34,1592.29C2034.02,1580.34 2130.97,1559.46 2195.13,1498.69C2213.89,1480.92 2195.95,1468.99 2203.67,1444.38C2244.88,1313.19 2069.22,896.176 1821.28,704.767Z" style="fill:rgb(245,149,151);fill-rule:nonzero;"/>
            <path d="M1472.69,859.813C1556.54,831.533 1646.72,846.699 1732.84,851.987C1775.05,854.58 1814.94,853.765 1854.9,838.394C1879.59,828.896 1902.65,815.831 1925.07,801.769C1892.32,765.678 1857.58,732.792 1821.28,704.767C1766.68,662.615 1610.41,568.458 1608.67,568.794C1606.38,569.238 1428.07,726.741 1415.17,757.825C1396.38,803.116 1388.04,851.331 1386.14,900.508C1413.52,884.056 1442.23,870.085 1472.69,859.813Z" style="fill:rgb(250,230,205);fill-rule:nonzero;"/>
            <path d="M1418.51,1001.04C1460.24,986.457 1504.53,980.279 1548.64,980.528C1599.68,980.817 1650.6,985.773 1701.66,983.087C1728.01,981.702 1754.31,978.373 1779.85,971.615C1806.59,964.54 1831.24,953.152 1855.59,940.203C1898.03,917.629 1938.94,892.355 1980.62,868.45C1971.49,856.566 1962.16,844.879 1952.62,833.458C1910.68,855.685 1872.13,885.072 1826.88,900.47C1742.67,929.125 1652.02,911.477 1565.19,916.821C1504.45,920.561 1441.6,931.867 1386.68,959.074C1387.6,976.72 1389.17,994.387 1391.16,1012C1400.09,1007.97 1409.2,1004.29 1418.51,1001.04Z" style="fill:rgb(250,230,205);fill-rule:nonzero;"/>
            <path d="M842.228,1117.31C777.026,1194.31 708.152,1268.17 635.854,1338.54C636.162,1338.1 636.292,1337.52 636.001,1336.91C626.1,1316.06 620.53,1293.8 619.414,1270.75C619.315,1268.71 616.139,1268.7 616.238,1270.75C617.381,1294.36 623.118,1317.16 633.258,1338.51C633.692,1339.43 634.584,1339.49 635.268,1339.1C611.398,1362.32 587.162,1385.16 562.555,1407.6C535.038,1432.7 505.064,1456.13 481.371,1485.04C480.085,1486.61 482.319,1488.87 483.617,1487.28C504.554,1461.74 530.551,1440.86 554.957,1418.79C579.797,1396.33 604.278,1373.46 628.383,1350.21C676.946,1303.36 723.995,1254.95 769.424,1205.05C794.958,1177.01 819.965,1148.5 844.473,1119.55C845.787,1118 843.551,1115.74 842.228,1117.31Z" style="fill:rgb(31,12,13);fill-rule:nonzero;"/>
            <path d="M1547.89,532.035C1538.38,533.589 1530.52,540.146 1522.76,545.879C1486.03,573.052 1446.18,595.728 1405.07,615.578C1394.61,620.625 1375.16,624.988 1369.33,636.1C1363.59,647.038 1372.32,660.396 1377.29,669.89C1396.08,705.771 1423.44,735.582 1452.11,763.833C1470.29,781.741 1485.49,778.499 1507.39,769.409C1548.29,752.426 1659.8,700.848 1658.4,680.75C1660,678.738 1593.8,524.539 1547.89,532.035Z" style="fill:rgb(250,230,205);fill-rule:nonzero;"/>
            <path d="M1737.03,696.445C1670.26,666 1605.29,678.491 1538.91,722.112C1473.7,764.962 1469.77,841.151 1459.05,910.922C1446.54,992.315 1435.44,1073.92 1423.86,1155.45C1421.1,1174.9 1418.33,1194.34 1415.4,1213.77C1411.01,1213.52 1471.67,1503.21 1542.42,1490.36C1578.66,1483.77 1631.55,1426.29 1649.44,1397.11C1694.41,1323.76 1727.5,1243.94 1756.36,1163.1C1776.02,1108.04 1798.31,1055.69 1806.4,997.205C1815.12,934.163 1812.37,867.854 1794.33,806.645C1785.85,777.872 1768.61,710.843 1737.03,696.445Z" style="fill:rgb(245,149,151);fill-rule:nonzero;"/>
            <path d="M1472.69,859.813C1556.54,831.533 1646.72,846.699 1732.84,851.987C1757.39,853.495 1781.14,853.826 1804.59,850.836C1802.96,833.458 1801.94,814.36 1797.67,799.881C1789.19,771.107 1772.45,708.67 1740.88,694.272C1674.11,663.827 1605.29,678.491 1538.91,722.112C1488.73,755.087 1474.84,807.808 1466.22,862.152C1468.38,861.38 1470.51,860.548 1472.69,859.813Z" style="fill:rgb(250,230,205);fill-rule:nonzero;"/>
            <path d="M1548.64,980.528C1599.68,980.817 1650.6,985.773 1701.66,983.087C1728.01,981.702 1754.31,978.373 1779.85,971.615C1790.19,968.879 1800.22,965.485 1810.04,961.618C1815.57,944.398 1817.9,922.727 1810.59,905.426C1731.05,926.948 1646.45,911.82 1565.19,916.821C1528.72,919.066 1491.48,924.037 1455.66,933.538C1452.7,953.18 1449.82,972.833 1446.97,992.491C1480.12,984.029 1514.43,980.334 1548.64,980.528Z" style="fill:rgb(250,230,205);fill-rule:nonzero;"/>
            <path d="M1464.95,874.589C1464.87,874.589 1464.79,874.584 1464.71,874.571C1463.8,874.44 1463.17,873.599 1463.3,872.695C1463.51,871.262 1485.11,729.264 1570.97,709.333C1571.86,709.119 1572.75,709.682 1572.96,710.571C1573.17,711.462 1572.61,712.354 1571.72,712.559C1488.03,731.985 1466.79,871.761 1466.58,873.17C1466.46,873.996 1465.76,874.589 1464.95,874.589Z" style="fill:rgb(65,36,38);fill-rule:nonzero;"/>
            <path d="M1442.71,740.667C1441.88,740.667 1441.16,740.046 1441.07,739.202C1440.96,738.293 1441.61,737.471 1442.52,737.366C1443.02,737.308 1493.19,731.11 1544.78,692.94C1545.51,692.394 1546.55,692.551 1547.09,693.287C1547.64,694.023 1547.48,695.06 1546.75,695.603C1494.41,734.327 1443.41,740.598 1442.9,740.656C1442.84,740.664 1442.77,740.667 1442.71,740.667Z" style="fill:rgb(65,36,38);fill-rule:nonzero;"/>
            <path d="M1294.47,407.586C1295.7,394.093 1277.6,384.668 1266.75,382.188C1252.95,379.034 1236.39,382.49 1227.71,394.378C1221.75,402.546 1228.49,415.531 1237.28,418.186C1244.51,420.371 1250.99,417.674 1258.15,417.301C1266.39,416.87 1274.48,419.5 1282.72,418.862C1288.97,418.38 1293.9,413.883 1294.47,407.586Z" style="fill:rgb(84,45,32);fill-rule:nonzero;"/>
            <path d="M1901.58,776.764C1917.92,691.54 1855.61,613.719 1779.86,582.846C1754.22,572.395 1726.54,568.253 1702.63,553.366C1646.5,518.424 1611.65,454.127 1598.26,390.822C1594.93,375.102 1590.08,359.408 1581.54,343.06C1581.34,342.664 1465.08,374.811 1438.27,381.296C1397.5,391.159 1311.61,432.15 1314.34,433.565C1325.07,470.501 1360.5,489.516 1391.32,508.687C1411.42,521.192 1429.2,535.465 1439.55,557.279C1449.17,577.535 1453.26,599.813 1460.78,620.839C1489.23,700.457 1562.27,753.872 1647.95,741.806C1671.56,738.481 1693.97,732.49 1718.04,731.806C1865.14,727.622 1899.11,789.614 1901.58,776.764Z" style="fill:rgb(84,45,32);fill-rule:nonzero;"/>
            <path d="M1273.45,550.866C1264.78,565.509 1249.88,572.814 1233.65,576.181C1230.7,576.784 1228.16,576.117 1226.19,574.72C1223.9,565.636 1222.28,556.234 1221.01,547.15C1221.65,547.182 1222.28,547.277 1222.98,547.468C1236.51,551.152 1250.52,548.929 1262.08,542.577C1270.27,538.066 1278.44,542.481 1273.45,550.866Z" style="fill:white;fill-rule:nonzero;"/>
            <path d="M1590.35,368.576C1588.12,358.772 1584.72,349.181 1580.05,339.999C1562.09,304.693 1529.25,279.304 1493.91,262.878C1457.46,245.937 1416.43,236.9 1376.2,237.863C1368.52,238.046 1360.85,238.588 1353.23,239.495C1320.75,243.358 1286.49,251.91 1263.53,277.045C1245.04,297.287 1239.63,328.098 1244.27,354.413C1250.84,391.73 1277.49,420.777 1303.85,446.278C1327.03,468.701 1355.41,491.745 1385.66,491.789C1406.25,491.82 1424.76,473.569 1443.15,483.125C1461.57,492.696 1481.97,499.257 1502.78,500.457C1524.61,501.716 1558.11,498.343 1570.34,478.482C1590.43,445.867 1598.8,405.698 1590.35,368.576Z" style="fill:rgb(84,45,32);fill-rule:nonzero;"/>
            <path d="M1374.67,729.522C1358.53,692.042 1312.85,607.655 1282.92,580.387C1274.66,572.856 1230.29,522.872 1216.2,552.6C1214.11,557.01 1220.9,572.594 1214.48,567.061C1204.72,558.648 1194.35,550.912 1182.97,544.261C1170.52,536.985 1125.8,503.356 1113.5,524.184C1112.24,526.306 1109.74,527.411 1107.31,526.845C1100.03,525.153 1096.2,528.361 1091.34,535.462C1086.1,543.125 1085.85,550.21 1090.8,558.291C1090.6,558.755 1090.64,559.336 1090.35,559.825C1083.39,571.238 1085.1,585.487 1093.17,591.879C1093.93,592.48 1093.66,593.772 1093.42,594.704C1091.7,601.236 1087.66,608.165 1090.01,616.984C1093.04,628.35 1104,642.907 1110.88,652.268C1126.49,673.524 1144.41,692.905 1164.27,710.426C1164.34,710.492 1164.42,710.529 1164.5,710.591C1179.1,725.492 1241.2,774.34 1251.32,789.897C1260.7,804.328 1268.59,823.857 1275.22,839.645C1275.41,840.098 1332.6,844.879 1353.68,838.966C1366.82,835.28 1400.74,828.632 1400.3,811.12C1400.03,800.472 1378.47,738.342 1374.67,729.522Z" style="fill:rgb(173,89,53);fill-rule:nonzero;"/>
            <path d="M1624.16,1261.22C1617.29,1211.17 1597.4,1157.63 1579.61,1110.78C1552.58,1039.6 1523.23,974.444 1491.07,905.426C1485.49,893.452 1467.86,851.165 1446.15,809.733C1415.13,822.504 1383.84,834.734 1354.33,850.792C1307.75,876.135 1263.98,906.644 1220.29,937.027C1211.14,943.592 1201.95,950.078 1192.71,956.45C1226.13,1085.14 1295.64,1297.12 1351.61,1378.15C1372.21,1407.98 1389.55,1445.78 1419.39,1467.71C1458.65,1496.56 1524.34,1516.08 1568.85,1495.55C1648.69,1458.71 1633.8,1331.42 1624.16,1261.22Z" style="fill:rgb(245,149,151);fill-rule:nonzero;"/>
            <path d="M1456.92,830.962C1428.08,772.349 1388.01,704.479 1360.26,719.7C1300.85,752.294 1240.84,784.697 1189.79,829.833C1181.64,836.985 1174.76,844.258 1173.14,855.408C1171.4,867.494 1181.36,914.975 1198.28,977.444C1266.96,957.896 1418.86,868.205 1456.92,830.962Z" style="fill:rgb(250,230,205);fill-rule:nonzero;"/>
            <path d="M2221.76,1422.35C2218.41,1413.67 2210.13,1408.88 2202.6,1413.38C2100.93,1474.07 1794.96,1514.11 1716.18,1525.37C1708.5,1526.47 1702.5,1532.69 1701.88,1540.42C1700.14,1562.35 1705.34,1600.97 1703.38,1607.19C1695.2,1633.07 1666.14,1750.15 1664.54,1774.54C1664.35,1777.4 1666.7,1779.97 1669.55,1779.64C1670.7,1787.21 2189.79,1774.3 2283.14,1771.91C2291.15,1771.71 2297.44,1765.03 2297.16,1757.02C2295.67,1713.66 2286.29,1589.49 2221.76,1422.35Z" style="fill:rgb(87,106,153);fill-rule:nonzero;"/>
            <path d="M762.672,879.813C753.474,867.375 726.08,863.11 705.257,885.406C704.608,886.1 703.683,886.87 702.809,886.594C685.154,881.028 658.488,889.64 653.869,908.07C653.693,908.773 652.978,909.342 652.253,909.346C626.756,909.479 620.312,935.445 619.397,938.847C618.996,940.338 618.073,941.623 616.749,942.205C603.966,947.823 600.539,964.332 602.943,979.339C604.203,987.201 605.971,996.564 612.317,1001.53C617.021,1005.21 623.15,1005.63 627.925,1002.63C628.75,1002.11 629.684,1001.94 630.609,1002.02C632.24,1007.11 633.068,1005.96 637.276,1008.53C647.478,1014.74 663.235,1002.83 667.64,993.793C671.113,986.667 664.194,979.632 673.535,979.498C683.899,979.349 695.052,972.978 700.359,964.467C701.2,963.117 702.596,962.231 704.168,961.991C710.715,960.99 717.775,957.081 722.543,952.51C726.179,949.025 729.286,944.783 732.005,940.28C737.883,940.771 743.969,940.126 749.496,937.754C756.896,934.579 763.163,928.954 769.595,924.242C777.923,918.141 792.771,907.951 792.78,896.176C792.794,877.301 763.422,880.828 762.672,879.813Z" style="fill:rgb(173,89,53);fill-rule:nonzero;"/>
            <path d="M731.639,939.702C731.215,939.702 730.791,939.54 730.467,939.216C724.543,933.292 722.044,926.694 723.042,919.604C725.875,899.454 756.058,882.518 757.342,881.806C758.139,881.363 759.15,881.652 759.593,882.453C760.037,883.252 759.747,884.26 758.946,884.705C758.647,884.87 728.921,901.552 726.32,920.07C725.478,926.071 727.661,931.726 732.81,936.875C733.457,937.521 733.457,938.569 732.81,939.216C732.486,939.54 732.063,939.702 731.639,939.702Z" style="fill:rgb(125,52,22);fill-rule:nonzero;"/>
            <path d="M699.875,959.553C699.105,959.553 698.415,959.013 698.254,958.23C697.992,956.954 691.857,926.882 693.073,917.971C694.282,909.11 701.999,891.291 702.327,890.537C702.692,889.698 703.66,889.31 704.505,889.678C705.345,890.042 705.73,891.019 705.364,891.857C705.287,892.038 697.502,910.011 696.357,918.417C695.216,926.775 701.436,957.256 701.499,957.563C701.683,958.459 701.106,959.334 700.21,959.519C700.097,959.542 699.985,959.553 699.875,959.553Z" style="fill:rgb(125,52,22);fill-rule:nonzero;"/>
            <path d="M667.716,977.419C667.071,977.419 666.458,977.041 666.191,976.409C665.832,975.561 657.373,955.506 654.594,943.993C651.896,932.813 651.954,916.024 653.237,914.099C653.74,913.335 654.767,913.131 655.533,913.639C656.245,914.113 656.472,915.043 656.083,915.784C655.49,917.736 655.192,932.355 657.813,943.216C660.528,954.464 669.154,974.912 669.242,975.118C669.598,975.96 669.205,976.933 668.362,977.289C668.151,977.377 667.931,977.419 667.716,977.419Z" style="fill:rgb(125,52,22);fill-rule:nonzero;"/>
            <path d="M630.396,1000.45C629.678,1000.45 629.019,999.978 628.807,999.255C628.751,999.066 623.216,980.128 621.247,972.249C619.239,964.219 618.83,945.719 618.814,944.934C618.794,944.02 619.521,943.263 620.436,943.244C621.329,943.318 622.107,943.951 622.126,944.866C622.13,945.054 622.542,963.776 624.459,971.444C626.416,979.262 631.931,998.136 631.986,998.327C632.244,999.204 631.739,1000.12 630.861,1000.38C630.705,1000.43 630.55,1000.45 630.396,1000.45Z" style="fill:rgb(125,52,22);fill-rule:nonzero;"/>
            <path d="M1316.14,625.738C1315.61,625.738 1315.09,625.487 1314.77,625.02C1268.62,557.918 1244.07,545.69 1233.55,544.373C1228.95,543.784 1226.95,545.326 1226.94,545.342C1226.25,545.943 1225.2,545.879 1224.6,545.188C1223.99,544.499 1224.06,543.453 1224.75,542.851C1225.05,542.589 1227.82,540.313 1233.96,541.086C1247.49,542.778 1272.96,558.389 1317.5,623.144C1318.02,623.897 1317.83,624.928 1317.08,625.447C1316.79,625.645 1316.46,625.738 1316.14,625.738Z" style="fill:rgb(125,52,22);fill-rule:nonzero;"/>
            <path d="M1275.17,625.738C1274.69,625.738 1274.23,625.538 1273.9,625.146C1272.15,623.06 1269.99,620.659 1267.49,618.015C1266.07,616.511 1264.57,614.958 1263,613.371C1245.2,595.311 1219.28,572.797 1219.03,572.57C1218.33,571.972 1218.26,570.925 1218.86,570.234C1219.46,569.542 1220.51,569.468 1221.2,570.07C1221.46,570.294 1247.47,592.896 1265.36,611.045C1266.94,612.648 1268.46,614.22 1269.9,615.74C1272.44,618.432 1274.64,620.881 1276.44,623.018C1277.02,623.718 1276.93,624.763 1276.23,625.352C1275.92,625.61 1275.54,625.738 1275.17,625.738Z" style="fill:rgb(125,52,22);fill-rule:nonzero;"/>
            <path d="M1167.17,666.531C1166.82,666.531 1166.46,666.416 1166.16,666.18C1142.9,648.03 1099.11,601.555 1098.67,601.088C1098.04,600.421 1098.07,599.374 1098.74,598.746C1099.41,598.122 1100.45,598.151 1101.08,598.817C1101.52,599.283 1145.14,645.575 1168.19,663.569C1168.91,664.132 1169.04,665.172 1168.48,665.894C1168.15,666.312 1167.67,666.531 1167.17,666.531Z" style="fill:rgb(125,52,22);fill-rule:nonzero;"/>
            <path d="M1181.47,635.221C1181.2,635.221 1180.94,635.16 1180.69,635.029C1166.38,627.437 1099.17,566.442 1096.32,563.849C1095.64,563.234 1095.59,562.186 1096.2,561.509C1096.82,560.834 1097.87,560.784 1098.55,561.397C1099.24,562.029 1168.29,624.705 1182.24,632.101C1183.05,632.53 1183.36,633.533 1182.93,634.342C1182.63,634.901 1182.06,635.221 1181.47,635.221Z" style="fill:rgb(125,52,22);fill-rule:nonzero;"/>
            <path d="M1198.14,607.015C1197.67,607.015 1197.2,606.814 1196.88,606.425C1190.68,599.082 1113.57,531.795 1112.79,531.118C1112.11,530.516 1112.03,529.47 1112.63,528.781C1113.24,528.093 1114.29,528.024 1114.97,528.621C1118.16,531.399 1193.05,596.753 1199.41,604.291C1200,604.989 1199.91,606.034 1199.21,606.625C1198.9,606.887 1198.52,607.015 1198.14,607.015Z" style="fill:rgb(125,52,22);fill-rule:nonzero;"/>
            <path d="M1270.48,457.044C1268.78,448.905 1257.8,431.956 1247.43,442.16C1241.65,447.856 1244.08,461.317 1247.24,467.694C1250.64,474.554 1258.43,477.413 1266.4,473.551C1271.35,471.155 1271.51,461.938 1270.48,457.044Z" style="fill:rgb(59,34,34);fill-rule:nonzero;"/>
            <path d="M1204.29,517.957C1203.57,517.957 1202.92,517.494 1202.7,516.776C1202.44,515.901 1202.94,514.977 1203.81,514.713C1204.26,514.581 1214.83,511.443 1224.07,512.53C1224.97,512.637 1225.63,513.46 1225.52,514.369C1225.41,515.278 1224.6,515.927 1223.68,515.82C1215.16,514.822 1204.87,517.854 1204.76,517.887C1204.6,517.934 1204.44,517.957 1204.29,517.957Z" style="fill:rgb(125,52,22);fill-rule:nonzero;"/>
            <path d="M1602.34,1470.66C1601.85,1470.66 1601.37,1470.44 1601.04,1470.03C1600.47,1469.31 1600.6,1468.27 1601.31,1467.71C1602.71,1466.6 1741.33,1354.89 1803.31,1104.28C1803.53,1103.39 1804.42,1102.85 1805.32,1103.07C1806.2,1103.29 1806.75,1104.19 1806.53,1105.08C1744.26,1356.87 1604.77,1469.2 1603.37,1470.31C1603.06,1470.54 1602.7,1470.66 1602.34,1470.66Z" style="fill:rgb(65,36,38);fill-rule:nonzero;"/>
            <path d="M1787.27,1215.09C1786.99,1215.09 1786.7,1215.02 1786.44,1214.87C1785.65,1214.41 1785.38,1213.4 1785.84,1212.61C1811.85,1167.65 1830.5,1130.15 1841.28,1101.14C1841.77,1099.82 1842.11,1098.89 1842.35,1098.33C1842.71,1097.48 1843.68,1097.09 1844.52,1097.45C1845.37,1097.81 1845.76,1098.78 1845.4,1099.62C1845.17,1100.16 1844.85,1101.04 1844.38,1102.3C1833.54,1131.48 1814.81,1169.15 1788.7,1214.27C1788.4,1214.8 1787.84,1215.09 1787.27,1215.09Z" style="fill:rgb(65,36,38);fill-rule:nonzero;"/>
            <path d="M1593.84,1157.86C1593.11,1157.86 1592.44,1157.37 1592.24,1156.63C1559.46,1032.1 1422.06,771.56 1420.84,769.583C1420.37,768.803 1420.61,767.784 1421.39,767.304C1422.16,766.82 1423.18,767.068 1423.66,767.846C1424.88,769.821 1562.49,1030.6 1595.45,1155.78C1595.68,1156.67 1595.15,1157.57 1594.27,1157.81C1594.12,1157.84 1593.98,1157.86 1593.84,1157.86Z" style="fill:rgb(65,36,38);fill-rule:nonzero;"/>
            <path d="M1559.85,333.033C1559.8,332.535 1559.57,332.16 1559.26,331.906C1559.27,329.446 1559.16,326.996 1558.82,324.577C1558.53,322.562 1555.46,323.418 1555.75,325.421C1557.71,339.039 1551.9,353.861 1546.05,365.94C1540.81,376.772 1534.03,386.66 1526.04,395.646C1524.69,397.169 1526.92,399.423 1528.29,397.892C1540.55,384.098 1553.52,364.58 1557.82,344.819C1560.02,366.395 1562.63,388.176 1562.15,409.78C1561.55,437.07 1552.97,461.655 1527.84,475.217C1505.99,487.01 1479.28,490.752 1454.81,491.795C1427.63,492.954 1400.54,489.544 1374.26,482.647C1372.28,482.128 1371.44,485.191 1373.41,485.71C1401.39,493.051 1430.35,496.502 1459.26,494.746C1483.67,493.264 1510.1,489.18 1531.57,476.774C1552.34,464.773 1562.28,444.821 1564.65,421.417C1567.6,392.262 1562.47,362.067 1559.85,333.033Z" style="fill:rgb(59,24,13);fill-rule:nonzero;"/>
            <path d="M1531.73,332.565C1525.91,349.671 1506.51,356.768 1490.31,360.108C1471.89,363.904 1452.86,362.872 1434.37,360.202C1432.37,359.913 1431.51,362.973 1433.53,363.265C1454.46,366.288 1476.01,367.264 1496.67,361.886C1512.43,357.782 1529.2,349.856 1534.8,333.41C1535.46,331.471 1532.39,330.638 1531.73,332.565Z" style="fill:rgb(59,24,13);fill-rule:nonzero;"/>
            <path d="M1279.2,409.975C1271.15,402.891 1264.51,394.632 1259.34,385.23C1258.36,383.438 1255.62,385.039 1256.6,386.833C1261.89,396.462 1268.71,404.965 1276.96,412.221C1278.49,413.566 1280.74,411.328 1279.2,409.975Z" style="fill:rgb(59,24,13);fill-rule:nonzero;"/>
            <path d="M1253.1,289.263C1244.46,301.234 1241.83,315.798 1245.61,330.059C1246.13,332.033 1249.2,331.196 1248.67,329.215C1245.09,315.686 1247.66,302.205 1255.85,290.866C1257.04,289.207 1254.29,287.62 1253.1,289.263Z" style="fill:rgb(59,24,13);fill-rule:nonzero;"/>
            <path d="M1587.82,209.114C1573.68,203.816 1561.91,220.465 1554.58,229.775C1543.63,243.69 1534.43,258.802 1526.85,274.788C1522.54,271.836 1517.92,269.306 1512.97,267.233C1511.08,266.444 1510.26,269.517 1512.12,270.295C1524,275.268 1534.17,283.197 1541.89,293.496C1543.1,295.112 1545.86,293.531 1544.63,291.893C1540.22,286.015 1535.13,280.948 1529.43,276.666C1539.08,256.218 1551.48,235.728 1567.44,219.601C1573.62,213.36 1581.92,208.08 1590.23,214.294C1596.01,218.619 1597.75,226.422 1598.25,233.245C1599.56,251.196 1580.24,253.176 1566.56,253.468C1564.52,253.511 1564.51,256.688 1566.56,256.644C1577.94,256.401 1596.49,255.363 1600.76,242.238C1604.3,231.352 1599.3,213.415 1587.82,209.114Z" style="fill:rgb(59,24,13);fill-rule:nonzero;"/>
            <path d="M1824.12,674.688C1798.49,662.547 1770.84,655.27 1742.49,653.748C1711.19,652.067 1680.37,659.777 1649.11,658.58C1620.23,657.474 1593.07,645.864 1573.78,624.048C1564.1,613.095 1557.76,600.012 1550.92,587.222C1544.79,575.746 1537.99,564.638 1530.25,554.17C1513.54,531.581 1492.72,512.212 1467.36,499.787C1465.53,498.892 1463.92,501.629 1465.75,502.53C1490.22,514.517 1510.52,533.045 1526.76,554.767C1534.81,565.525 1541.86,576.979 1548.18,588.825C1554.37,600.418 1560.14,612.278 1568.41,622.581C1583.34,641.175 1604.8,654.411 1628.15,659.29C1657.8,665.484 1687.93,658.822 1717.66,657.052C1753.83,654.898 1789.78,661.922 1822.51,677.43C1824.35,678.3 1825.96,675.563 1824.12,674.688Z" style="fill:rgb(59,24,13);fill-rule:nonzero;"/>
            <path d="M1559.2,571.626C1551.34,548.035 1541.77,525.12 1530.51,502.949C1529.58,501.125 1526.84,502.731 1527.77,504.552C1538.9,526.479 1548.36,549.14 1556.13,572.47C1556.78,574.4 1559.85,573.573 1559.2,571.626Z" style="fill:rgb(59,24,13);fill-rule:nonzero;"/>
            <path d="M1727.25,1603.32C1726.33,1603.32 1725.59,1602.58 1725.59,1601.66C1725.59,1600.75 1726.33,1600.01 1727.25,1600.01C1729.68,1600.01 1972.66,1598.97 2166.99,1510.64C2167.83,1510.25 2168.81,1510.63 2169.19,1511.46C2169.56,1512.29 2169.2,1513.27 2168.36,1513.65C1973.37,1602.29 1729.68,1603.32 1727.25,1603.32Z" style="fill:rgb(65,36,38);fill-rule:nonzero;"/>
        </g>
    </g>
</svg>
