<?xml version="1.0" encoding="UTF-8" standalone="no"?>
<!DOCTYPE svg PUBLIC "-//W3C//DTD SVG 1.1//EN" "http://www.w3.org/Graphics/SVG/1.1/DTD/svg11.dtd">
<svg width="100%" height="100%" viewBox="0 0 2000 2000" version="1.1" xmlns="http://www.w3.org/2000/svg" xmlns:xlink="http://www.w3.org/1999/xlink" xml:space="preserve" xmlns:serif="http://www.serif.com/" style="fill-rule:evenodd;clip-rule:evenodd;stroke-linejoin:round;stroke-miterlimit:2;">
    <g>
        <rect x="0" y="0" width="2000" height="2000" style="fill:white;fill-rule:nonzero;"/>
        <path d="M1336.65,1962.3C1223.55,1962.08 1110.44,1962.4 997.32,1963.29C998.35,1805.95 999.378,1648.61 1000.41,1491.27C1174.73,1475.51 1349.05,1459.76 1523.37,1444C1562.82,1617.43 1602.28,1790.85 1641.74,1964.27C1540.03,1963.17 1438.34,1962.51 1336.65,1962.3Z" style="fill:rgb(110,186,224);fill-rule:nonzero;"/>
        <clipPath id="_clip1">
            <path d="M1336.65,1962.3C1223.55,1962.08 1110.44,1962.4 997.32,1963.29C998.35,1805.95 999.378,1648.61 1000.41,1491.27C1174.73,1475.51 1349.05,1459.76 1523.37,1444C1562.82,1617.43 1602.28,1790.85 1641.74,1964.27C1540.03,1963.17 1438.34,1962.51 1336.65,1962.3Z" clip-rule="nonzero"/>
        </clipPath>
        <g clip-path="url(#_clip1)">
            <path d="M1205.49,1962.29C1204.95,1896.7 1204.41,1831.12 1203.86,1765.54C1225.08,1831.11 1246.29,1896.67 1267.5,1962.23L1266.74,1962.23C1246.32,1962.23 1225.9,1962.25 1205.49,1962.29Z" style="fill:rgb(83,149,181);fill-rule:nonzero;"/>
            <path d="M1380.07,1584.27C1264.95,1584.27 1149.78,1559.28 1045.47,1510.59C1115.5,1531 1202.6,1547.84 1301.29,1547.84C1332.8,1547.84 1365.49,1546.12 1399.17,1542.25C1435.76,1538.06 1485.58,1529.85 1538.9,1512.28C1542.93,1530 1546.96,1547.71 1550.99,1565.43C1494.94,1578.05 1437.52,1584.27 1380.07,1584.27Z" style="fill:rgb(83,149,181);fill-rule:nonzero;"/>
        </g>
        <path d="M993.449,1493.84C986.173,1480.68 972.512,1451.03 980.022,1416.82C987.388,1383.28 1014.32,1364.82 1027.72,1347.78C1042.94,1328.41 1069.21,1321.59 1087.21,1305.57C1105.12,1289.63 1110.32,1255.21 1115.68,1232.76C1129.76,1173.84 1131.96,1112.05 1121.67,1052.33C1109.43,981.208 1079.52,913.259 1035.69,855.95C1023.32,839.762 1012.92,828.654 1000.94,819.871C980.103,804.597 960.565,798.83 954.235,796.867C928.812,788.98 885.666,770.232 807.818,722.756C809.878,721.303 813.029,719.12 816.934,716.578C841.131,700.826 861.762,692.401 874.394,687.428C920.268,669.37 966.512,652.368 1013.93,638.726C1036.23,632.313 1061.5,626.692 1061.5,626.692C1076.92,623.061 1089.97,620.244 1099.58,618.244C1178.64,618.586 1257.71,618.928 1336.78,619.269C1370.41,629.258 1417.13,644.991 1470.75,669.374C1530.46,696.522 1573.05,715.89 1615.9,751.602C1695.2,817.688 1728.87,898.895 1744.09,943.01C1769.47,1016.56 1778.86,1094.74 1781.85,1172.49C1784.85,1250.69 1770.18,1315.21 1764.79,1335.22C1754.9,1371.5 1729.56,1401.24 1701.16,1424.85C1599.75,1509.17 1472.71,1533.82 1399.17,1542.25C1231.99,1561.44 1089.43,1527.69 993.449,1493.84Z" style="fill:rgb(204,204,204);fill-rule:nonzero;"/>
        <clipPath id="_clip2">
            <path d="M993.449,1493.84C986.173,1480.68 972.512,1451.03 980.022,1416.82C987.388,1383.28 1014.32,1364.82 1027.72,1347.78C1042.94,1328.41 1069.21,1321.59 1087.21,1305.57C1105.12,1289.63 1110.32,1255.21 1115.68,1232.76C1129.76,1173.84 1131.96,1112.05 1121.67,1052.33C1109.43,981.208 1079.52,913.259 1035.69,855.95C1023.32,839.762 1012.92,828.654 1000.94,819.871C980.103,804.597 960.565,798.83 954.235,796.867C928.812,788.98 885.666,770.232 807.818,722.756C809.878,721.303 813.029,719.12 816.934,716.578C841.131,700.826 861.762,692.401 874.394,687.428C920.268,669.37 966.512,652.368 1013.93,638.726C1036.23,632.313 1061.5,626.692 1061.5,626.692C1076.92,623.061 1089.97,620.244 1099.58,618.244C1178.64,618.586 1257.71,618.928 1336.78,619.269C1370.41,629.258 1417.13,644.991 1470.75,669.374C1530.46,696.522 1573.05,715.89 1615.9,751.602C1695.2,817.688 1728.87,898.895 1744.09,943.01C1769.47,1016.56 1778.86,1094.74 1781.85,1172.49C1784.85,1250.69 1770.18,1315.21 1764.79,1335.22C1754.9,1371.5 1729.56,1401.24 1701.16,1424.85C1599.75,1509.17 1472.71,1533.82 1399.17,1542.25C1231.99,1561.44 1089.43,1527.69 993.449,1493.84Z" clip-rule="nonzero"/>
        </clipPath>
        <g clip-path="url(#_clip2)">
            <path d="M1109.75,1300.73C1140.55,1285.37 1175.6,1270.59 1214.83,1258.17C1178.87,1269.77 1143.97,1284.3 1109.75,1300.73ZM1282.37,1240.3C1282.69,1238.07 1283.01,1235.73 1283.31,1233.3C1286.53,1232.6 1289.75,1231.91 1292.97,1231.23C1321.37,1225.26 1338.28,1224.76 1389.16,1215.17C1409.21,1211.38 1425.6,1207.97 1436.33,1205.67C1447.17,1169.68 1458.01,1133.69 1468.85,1097.7C1473.45,1130.2 1475.94,1163.75 1475.89,1198.29C1475.89,1199.73 1475.89,1201.17 1475.87,1202.61C1481.74,1201.62 1488.78,1200.86 1496.73,1200.86C1498.8,1200.86 1500.93,1200.91 1503.12,1201.02C1510.55,1201.4 1517.18,1202.41 1522.85,1203.62C1469.32,1211.02 1429.15,1216.37 1401.57,1219.98C1387.17,1221.87 1370.62,1224.48 1347.85,1227.79C1325.84,1230.99 1304.11,1235.66 1282.37,1240.3Z" style="fill:rgb(163,163,163);fill-rule:nonzero;"/>
        </g>
        <path d="M477.825,831.728C491.229,825.405 503.171,816.975 517.12,810.302C565.767,787.038 616.677,767.853 669.493,756.567C702.773,749.456 743.084,740.673 776.375,749.2C795.193,754.02 816.628,753.529 835.939,756.086C856.46,758.805 876.914,762.041 897.249,765.919C933.836,772.897 970.053,781.958 1005.39,793.756C1017.32,797.737 1033.22,800.787 1040.1,790.264C1043.71,784.745 1043,777.37 1040.54,771.255C1038.07,765.14 1034.07,759.771 1031.16,753.857C1014.54,720.117 1036.2,678 1023.55,642.579C1017.92,626.814 1006.03,614.13 998.376,599.243C988.422,579.887 994.952,567.783 998.888,548.927C1003.03,529.076 995.559,506.897 985.873,489.832C976.663,473.605 959.489,460.327 952.411,443.478C945.495,427.014 943.704,407.244 938.979,389.997C931.538,362.841 918.337,337.338 900.796,315.336C890.533,302.461 861.978,266.156 810.751,248.663C759.288,231.09 689.545,234.061 647.657,270.942C633.44,283.461 607.156,313.338 592.665,343.64C590.848,347.441 586.955,354.905 580.964,364.93C572.057,379.835 559.129,392.058 546.115,403.341C526.421,420.416 505.039,437.14 493.871,460.691C478.451,493.206 484.499,531.571 467.355,563.537C455.462,585.711 430.068,594.228 412.514,610.612C402.816,619.665 395.628,631.396 392.007,644.163C388.119,657.872 390.908,669.92 391.283,683.668C391.782,701.886 386.824,720.298 376.845,735.584C361.512,759.069 333.115,775.34 321.187,800.696C306.225,832.502 303.846,877.868 297.545,912.353C316.238,915.77 335.473,909.13 351.79,899.388C368.106,889.646 382.379,876.853 398.143,866.241C418.517,852.524 440.308,844.296 463.636,837.256C468.62,835.752 473.305,833.859 477.825,831.728Z" style="fill:rgb(40,43,46);fill-rule:nonzero;"/>
        <path d="M1015.82,304.035C998.106,288.021 983.552,262.236 992.066,237.928C994.154,231.967 1000.72,226.026 1001.03,219.769C1001.3,214.272 996.581,210.301 993.602,206.232C986.041,195.907 981.885,183.614 985.695,170.889C992.012,149.787 1009.9,147.869 1027.78,142.567C1027.92,140.624 1028.19,138.604 1028.18,136.587C1028.14,128.775 1031.77,123.091 1038.17,118.959C1044.94,114.589 1052.56,112.744 1060.39,111.591C1077.68,109.041 1094.91,109.807 1112.09,112.744C1114.07,113.083 1116.13,113.022 1118.46,113.166C1118.82,110.642 1119.12,108.605 1119.39,106.565C1120.93,95.168 1127.81,88.042 1139.2,86.341C1148.7,84.92 1157.99,86.026 1167.13,88.988C1185.04,94.788 1201.35,103.635 1216.28,114.968C1224.2,120.973 1231.65,127.577 1239.79,134.301C1241.72,133.91 1244.27,133.42 1246.82,132.871C1261.59,129.679 1283.03,134.636 1293.73,151.463C1297.92,158.043 1300.52,163.544 1301.32,166.075C1328.3,252.188 1313.61,349.555 1313.61,349.555C1310.69,368.934 1305.68,395.817 1296.58,427.481C1284.74,427.521 1268.57,425.529 1255.18,414.953C1248.59,409.75 1245.9,404.027 1242.26,400.168C1226.6,383.562 1211.08,366.851 1193.98,351.643C1176.59,336.18 1157.17,323.87 1136.9,312.712C1133.37,310.765 1129.83,309.844 1125.68,310.066C1113.36,310.724 1101,310.608 1088.71,311.479C1079.05,312.162 1069.47,313.898 1059.85,315.096C1048.34,316.527 1045.47,317.868 1040.31,317.298C1029.4,316.091 1021.14,309.509 1015.82,304.035Z" style="fill:rgb(40,43,46);fill-rule:nonzero;"/>
        <path d="M1264.53,111.171C1268.37,111.88 1272.22,112.56 1276.05,113.323C1276.79,113.471 1277.65,113.778 1278.13,114.306C1278.77,115.011 1279.55,116.067 1279.44,116.854C1279.33,117.611 1278.25,118.625 1277.44,118.801C1275.94,119.126 1274.31,119.082 1272.77,118.912C1264.84,118.036 1257.14,118.917 1249.55,121.366C1246.49,122.354 1244.92,121.745 1244.19,119.938C1243.35,117.818 1244.53,115.769 1247.61,114.78C1253.08,113.021 1258.6,111.374 1264.53,111.171Z" style="fill:rgb(40,43,46);fill-rule:nonzero;"/>
        <path d="M1238.86,120.989C1237.03,120.248 1235.62,120.092 1234.92,119.305C1233.73,117.965 1232.91,116.27 1232.08,114.65C1228.75,108.14 1225.26,101.731 1220.43,96.162C1220.09,95.77 1219.77,95.348 1219.52,94.899C1218.66,93.411 1218.58,91.933 1219.81,90.598C1220.83,89.483 1222.74,89.355 1224.08,90.389C1225.1,91.18 1226.08,92.066 1226.91,93.05C1232.58,99.728 1236.03,107.595 1238.8,115.782C1239.25,117.12 1238.86,118.742 1238.86,120.989Z" style="fill:rgb(40,43,46);fill-rule:nonzero;"/>
        <path d="M838.194,732.371C826.586,732.226 810.083,732.34 790.225,733.585C780.194,734.214 772.756,734.65 765.915,735.567C742.518,738.703 719.139,741.954 695.591,743.78C688.19,744.355 680.37,745.031 669.18,745.873C656.564,746.822 646.801,747.449 645.363,747.539C621.279,749.052 578.82,745.042 557.833,742.844C548.256,741.842 535.059,747.33 526.229,750.299C514.379,754.284 502.1,757.357 489.99,760.864C463.324,768.586 437.079,777.761 411.411,788.337C400.05,793.019 347.92,814.67 306.245,855.721C256.255,904.963 241.034,962.74 230.445,1002.94C225.484,1021.77 203.382,1111.19 232.53,1222.22C239.762,1249.77 255.27,1306.71 299.252,1366.2C364.01,1453.79 449.381,1491.32 490.829,1506.17C472.427,1553.44 454.787,1606.67 439.995,1665.52C411.668,1778.23 401.674,1880.2 399.845,1964.27C629.674,1963.73 859.504,1963.18 1089.33,1962.64C1086.63,1899.47 1079.93,1828.4 1066.48,1751.36C1049.44,1653.72 1025.34,1568.15 1000.37,1496.25C999.497,1495.95 998.619,1495.65 997.741,1495.35C998.82,1489.83 1000.03,1484.25 1001.39,1478.61C1013.91,1426.52 1035.6,1382.4 1059.56,1346.05C1062.62,1338.31 1065.67,1330.56 1068.73,1322.82C1108.2,1299.94 1157,1276.48 1214.89,1258.15C1238.46,1250.69 1261.06,1244.86 1282.37,1240.3C1286.98,1208.47 1290.17,1156.98 1273.22,1098.32C1268.94,1083.49 1259.16,1053.84 1235.3,1014.21C1180.03,922.398 1122.5,826.84 1006.35,772.799C1006.35,772.799 922.544,733.425 838.194,732.371Z" style="fill:rgb(255,184,184);fill-rule:nonzero;"/>
        <clipPath id="_clip3">
            <path d="M838.194,732.371C826.586,732.226 810.083,732.34 790.225,733.585C780.194,734.214 772.756,734.65 765.915,735.567C742.518,738.703 719.139,741.954 695.591,743.78C688.19,744.355 680.37,745.031 669.18,745.873C656.564,746.822 646.801,747.449 645.363,747.539C621.279,749.052 578.82,745.042 557.833,742.844C548.256,741.842 535.059,747.33 526.229,750.299C514.379,754.284 502.1,757.357 489.99,760.864C463.324,768.586 437.079,777.761 411.411,788.337C400.05,793.019 347.92,814.67 306.245,855.721C256.255,904.963 241.034,962.74 230.445,1002.94C225.484,1021.77 203.382,1111.19 232.53,1222.22C239.762,1249.77 255.27,1306.71 299.252,1366.2C364.01,1453.79 449.381,1491.32 490.829,1506.17C472.427,1553.44 454.787,1606.67 439.995,1665.52C411.668,1778.23 401.674,1880.2 399.845,1964.27C629.674,1963.73 859.504,1963.18 1089.33,1962.64C1086.63,1899.47 1079.93,1828.4 1066.48,1751.36C1049.44,1653.72 1025.34,1568.15 1000.37,1496.25C999.497,1495.95 998.619,1495.65 997.741,1495.35C998.82,1489.83 1000.03,1484.25 1001.39,1478.61C1013.91,1426.52 1035.6,1382.4 1059.56,1346.05C1062.62,1338.31 1065.67,1330.56 1068.73,1322.82C1108.2,1299.94 1157,1276.48 1214.89,1258.15C1238.46,1250.69 1261.06,1244.86 1282.37,1240.3C1286.98,1208.47 1290.17,1156.98 1273.22,1098.32C1268.94,1083.49 1259.16,1053.84 1235.3,1014.21C1180.03,922.398 1122.5,826.84 1006.35,772.799C1006.35,772.799 922.544,733.425 838.194,732.371Z" clip-rule="nonzero"/>
        </clipPath>
        <g clip-path="url(#_clip3)">
            <path d="M725.079,1290.93C701.514,1290.1 676.018,1287.62 649.055,1282.71C558.934,1266.29 496.179,1230.58 475.061,1217.83C461.422,1209.61 450.532,1202.12 443.197,1196.87C451.525,1200.05 459.854,1203.22 468.182,1206.4C467.824,1193.4 467.969,1179.27 468.896,1164.16C469.775,1149.83 471.246,1136.47 473.05,1124.18C472.193,1135.87 472.038,1149.73 473.569,1165.2C473.719,1166.71 473.882,1168.21 474.057,1169.69C475.163,1183.14 476.27,1196.58 477.376,1210.02C479.343,1211.05 481.33,1212.07 483.335,1213.09C483.47,1213.52 483.605,1213.95 483.741,1214.37C484.451,1214.77 485.51,1215.38 486.796,1216.1C512.24,1230.34 545.996,1245.75 604.203,1259.67C607.242,1260.7 610.304,1261.68 613.392,1262.61C615.014,1263.1 616.542,1263.42 617.973,1263.42C618.589,1263.42 619.188,1263.36 619.768,1263.23C628.544,1265.14 637.831,1267.02 647.67,1268.86C673.141,1273.62 703.65,1278.36 738.623,1281.85C738.992,1282.89 739.37,1283.94 739.724,1284.98C739.75,1285.06 739.776,1285.14 739.802,1285.21C740.283,1286.65 740.88,1288.05 741.686,1290.15C741.248,1290.15 740.835,1290.14 740.442,1290.14C740.172,1290.14 739.912,1290.15 739.659,1290.15L738.902,1290.15C737.979,1290.15 737.155,1290.13 736.337,1290.05C735.319,1289.95 734.309,1289.9 733.306,1289.9C730.513,1289.9 727.777,1290.28 725.079,1290.93Z" style="fill:rgb(217,126,126);fill-rule:nonzero;"/>
            <path d="M1082.2,1206.08C1071.22,1206.08 1060.29,1205.51 1049.39,1204.24C1048.59,1204.14 1047.79,1204.01 1047,1203.85C1053.99,1204.56 1060.18,1205.14 1065.44,1205.62C1067.07,1203.44 1068.68,1201.27 1070.27,1199.12C1072.51,1199.18 1074.76,1199.21 1077.01,1199.21C1082.86,1199.21 1088.72,1199.01 1094.6,1198.65C1109.55,1197.74 1121.87,1196.52 1129.7,1195.12C1143.08,1192.73 1151.61,1189.97 1153.7,1189.97C1153.99,1189.97 1154.16,1190.02 1154.2,1190.14C1154.61,1191.3 1141.44,1198.47 1125.31,1202.55C1116.99,1204.65 1107.02,1205.75 1087.03,1206.05C1085.42,1206.07 1083.81,1206.08 1082.2,1206.08Z" style="fill:rgb(217,126,126);fill-rule:nonzero;"/>
            <path d="M997.741,1495.35C997.804,1495.03 997.867,1494.71 997.93,1494.39C997.867,1494.71 997.804,1495.03 997.741,1495.35Z" style="fill:rgb(183,160,160);fill-rule:nonzero;"/>
            <path d="M658.908,1558.86C573.756,1558.86 501.331,1547.28 492.027,1545.76C486.762,1544.89 481.756,1544.03 477.042,1543.19C481.566,1530.47 486.174,1518.13 490.829,1506.17C553.438,1516.08 628.077,1523.6 712.2,1523.6C735.712,1523.6 759.949,1523.01 784.891,1521.72C864.702,1517.61 936.246,1507.13 997.93,1494.39C997.867,1494.71 997.804,1495.03 997.741,1495.35C998.619,1495.65 999.497,1495.95 1000.37,1496.25C1000.48,1496.55 1000.58,1496.85 1000.69,1497.15C925.759,1524.65 820.485,1553.29 692.666,1558.22C681.277,1558.66 669.978,1558.86 658.908,1558.86Z" style="fill:rgb(228,144,144);fill-rule:nonzero;"/>
        </g>
        <path d="M999.513,1198.48C938.299,1190.79 902.698,1183.34 872.109,1178.51C834.39,1172.56 779.506,1166.68 709.222,1168.82C680.663,1198.07 652.103,1227.33 623.544,1256.58C621.529,1258.36 619.515,1260.13 617.5,1261.91C584.066,1254.09 547.07,1242.46 508.332,1225.04C497.527,1220.18 487.21,1215.15 477.376,1210.02C476.267,1196.55 475.158,1183.08 474.05,1169.6C483.154,1157.75 496.22,1141.61 513.07,1123.5C525.638,1109.99 559.769,1074.48 618.279,1032.45C655.651,1005.6 730.462,952.734 842.028,915.522C891.933,898.877 935.491,889.935 967.692,884.836C968.253,884.668 969.107,884.416 970.15,884.125C991.864,878.053 1009.85,878.19 1022.29,879.356C1035.35,880.58 1048.41,881.763 1061.22,884.77C1089.5,891.408 1115.01,903.787 1137.68,921.961C1149.09,931.106 1158.35,942.071 1165.06,955.095C1167.56,959.958 1172.5,965.441 1174.34,974.189C1175.07,977.637 1175.23,980.577 1175.24,982.589C1173.33,994.04 1170.1,1009.93 1164.43,1028.4C1153.09,1065.34 1138.7,1090.7 1121.26,1121.02C1107.98,1144.12 1089.7,1173.3 1065.44,1205.62C1050.25,1204.24 1027.32,1201.97 999.513,1198.48Z" style="fill:white;fill-rule:nonzero;"/>
        <path d="M1348.71,622.941C1325.28,644.849 1302.64,658.022 1286.73,665.794C1273.52,672.247 1256.1,680.769 1231.22,684.603C1215.55,687.017 1199.81,687.334 1184.15,685.758C1166.38,683.97 1132.52,680.048 1101.57,655.834C1091.41,647.883 1084.22,639.827 1079.63,634.069C1085.89,629.238 1097.01,619.284 1104.55,602.918C1115.16,579.92 1112.04,558.773 1110.51,551.092C1106.68,549.232 1101.09,546.252 1094.89,541.842C1066.34,521.556 1053.24,491.325 1041.31,449.724C1031.57,415.763 1020.4,366.529 1015.82,304.035C1020.08,299.405 1024.95,293.278 1029.45,285.521C1032.79,279.741 1035.22,274.279 1037,269.507C1057.34,272.94 1083.15,275.401 1112.9,273.691C1151.63,271.464 1183.55,262.939 1206.48,254.839C1214.57,266.821 1227.03,282.185 1245.43,296.251C1254.69,303.331 1263.68,308.733 1271.73,312.865C1272.73,310.328 1274.41,306.915 1277.27,303.52C1286.35,292.742 1303.13,287.189 1318.46,291.752C1341.51,298.612 1346.53,323.933 1346.84,325.672C1349.86,342.367 1343.12,361.118 1328.15,370.668C1317.65,377.369 1306.72,377.223 1302.19,376.898C1295.4,424.239 1293.99,464.335 1294.23,494.235C1294.89,574.417 1307.6,596.378 1322.14,608.833C1331.54,616.885 1341.57,620.846 1348.71,622.941Z" style="fill:rgb(189,112,62);fill-rule:nonzero;"/>
        <clipPath id="_clip4">
            <path d="M1348.71,622.941C1325.28,644.849 1302.64,658.022 1286.73,665.794C1273.52,672.247 1256.1,680.769 1231.22,684.603C1215.55,687.017 1199.81,687.334 1184.15,685.758C1166.38,683.97 1132.52,680.048 1101.57,655.834C1091.41,647.883 1084.22,639.827 1079.63,634.069C1085.89,629.238 1097.01,619.284 1104.55,602.918C1115.16,579.92 1112.04,558.773 1110.51,551.092C1106.68,549.232 1101.09,546.252 1094.89,541.842C1066.34,521.556 1053.24,491.325 1041.31,449.724C1031.57,415.763 1020.4,366.529 1015.82,304.035C1020.08,299.405 1024.95,293.278 1029.45,285.521C1032.79,279.741 1035.22,274.279 1037,269.507C1057.34,272.94 1083.15,275.401 1112.9,273.691C1151.63,271.464 1183.55,262.939 1206.48,254.839C1214.57,266.821 1227.03,282.185 1245.43,296.251C1254.69,303.331 1263.68,308.733 1271.73,312.865C1272.73,310.328 1274.41,306.915 1277.27,303.52C1286.35,292.742 1303.13,287.189 1318.46,291.752C1341.51,298.612 1346.53,323.933 1346.84,325.672C1349.86,342.367 1343.12,361.118 1328.15,370.668C1317.65,377.369 1306.72,377.223 1302.19,376.898C1295.4,424.239 1293.99,464.335 1294.23,494.235C1294.89,574.417 1307.6,596.378 1322.14,608.833C1331.54,616.885 1341.57,620.846 1348.71,622.941Z" clip-rule="nonzero"/>
        </clipPath>
        <g clip-path="url(#_clip4)">
            <path d="M1120.41,613.765C1112.11,613.765 1104.98,612.953 1099.62,612.058C1101.36,609.265 1103.03,606.223 1104.55,602.918C1110.54,589.937 1112.16,577.545 1112.15,567.832C1112.15,560.337 1111.18,554.438 1110.51,551.092C1116.49,552.508 1126.62,554.449 1139.36,554.449C1150.2,554.449 1162.93,553.045 1176.6,548.715C1210.5,537.974 1229.88,515.659 1236.77,506.868C1236.25,513.403 1231.5,562.395 1187.26,593.215C1163.64,609.665 1139.08,613.765 1120.41,613.765Z" style="fill:rgb(147,82,44);fill-rule:nonzero;"/>
            <path d="M1168.66,472.509C1159.24,493.73 1138.06,504.254 1120.92,499.314C1105.18,494.781 1098.44,478.843 1097.44,476.363C1107.09,477.406 1118.34,477.979 1130.85,477.436C1145.32,476.807 1158.06,474.83 1168.66,472.509Z" style="fill:white;fill-rule:nonzero;"/>
            <path d="M1172.49,321.637C1180.58,321.892 1188.68,322.212 1196.55,324.362C1200.36,325.401 1204.01,326.841 1207.04,329.437C1208.19,330.427 1209.18,331.708 1209.96,333.024C1210.87,334.556 1210.01,337.024 1208.32,337.68C1206.91,338.229 1205.32,338.613 1203.81,338.618C1191.21,338.66 1178.88,340.912 1166.49,342.774C1162.9,343.314 1159.2,343.521 1155.57,343.357C1150.56,343.132 1147.39,340.384 1146.48,336.193C1145.62,332.201 1148.03,326.909 1151.84,324.935C1153.67,323.989 1155.7,323.316 1157.71,322.854C1160.25,322.27 1162.85,321.891 1165.45,321.678C1167.78,321.486 1170.14,321.637 1172.49,321.637Z" style="fill:rgb(40,43,46);fill-rule:nonzero;"/>
            <path d="M1052.6,351.979C1048.15,351.979 1043.7,352.05 1039.25,351.953C1036.64,351.896 1034.02,351.73 1031.44,351.326C1028.45,350.855 1027.2,347.83 1029.06,345.423C1030.32,343.794 1031.87,342.248 1033.61,341.168C1036.48,339.381 1039.48,337.688 1042.64,336.503C1053.51,332.416 1064.78,330.365 1076.44,330.753C1080.17,330.877 1083.7,331.657 1086.95,333.515C1089.72,335.096 1090.61,336.954 1090.08,340.01C1089.45,343.637 1087.4,346.438 1084.15,347.814C1080.58,349.323 1076.78,350.665 1072.96,351.118C1066.23,351.918 1059.41,351.99 1052.62,352.367C1052.61,352.238 1052.61,352.108 1052.6,351.979Z" style="fill:rgb(40,43,46);fill-rule:nonzero;"/>
            <path d="M1122.43,451.455C1121.64,451.455 1120.82,451.426 1120,451.365C1117.31,451.166 1110.95,449.96 1104.16,446.053C1096.99,441.929 1093.88,435.829 1095.38,427.583C1096.83,419.662 1098.06,413.702 1098.07,413.682C1100.92,405.534 1106.44,383.168 1114.62,347.109C1108.18,390.024 1103.49,421.013 1102.01,428.014C1101.75,429.242 1100.99,432.723 1102.67,435.949C1103.73,437.994 1105.76,439.527 1109.12,441.241C1110.4,441.9 1113.53,443.497 1117.61,444.36C1120.49,444.967 1123.69,445.194 1126.87,445.194C1135.37,445.194 1143.72,443.57 1145.27,443.261C1142.66,445.286 1134.08,451.455 1122.43,451.455Z" style="fill:rgb(125,68,36);fill-rule:nonzero;"/>
            <path d="M1076.5,374.054C1076.6,377.41 1075.91,380.565 1073.8,383.242C1070.96,386.835 1066.34,386.981 1063.16,383.67C1058.77,379.106 1058.33,369.894 1062.27,364.95C1065.07,361.428 1069.75,361.245 1072.92,364.532C1075.04,366.719 1076.37,370.286 1076.5,374.054Z" style="fill-rule:nonzero;"/>
            <path d="M1164.08,365.489C1163.91,361.623 1164.91,358.129 1167.6,355.278C1170.71,351.977 1175.39,351.815 1178.82,354.787C1184.12,359.375 1184.47,369.966 1179.5,374.96C1176,378.472 1171.32,378.47 1167.79,374.956C1165.54,372.716 1164.22,369.341 1164.08,365.489Z" style="fill-rule:nonzero;"/>
            <path d="M1220.67,448.837C1206.99,448.836 1194.82,438.981 1192.41,425.006C1189.75,409.56 1200.02,394.887 1215.49,392.049C1217.32,391.714 1219.12,391.552 1220.9,391.552C1239.22,391.552 1254.17,408.736 1247.93,430.704C1246.96,434.12 1245.11,437.214 1242.51,439.636C1235.63,446.057 1227.94,448.837 1220.67,448.837Z" style="fill:rgb(176,98,51);fill-rule:nonzero;"/>
            <path d="M1046.11,465.556C1044.47,460.474 1042.88,455.196 1041.31,449.724C1038.03,438.299 1034.59,425.146 1031.3,410.34C1032.54,409.93 1033.83,409.599 1035.16,409.356C1036.98,409.021 1038.79,408.859 1040.57,408.859C1058.89,408.859 1073.84,426.042 1067.6,448.011C1066.63,451.426 1064.78,454.52 1062.18,456.942C1057.1,461.682 1051.58,464.438 1046.11,465.556Z" style="fill:rgb(176,98,51);fill-rule:nonzero;"/>
        </g>
        <path d="M542.26,1102.11C546.974,1081.27 560.958,1070.83 580.667,1065.92C580.848,1064.3 581.095,1062.61 581.217,1060.91C582.24,1046.59 592.83,1035.06 607.136,1032.84C611.545,1032.16 615.767,1033.16 619.802,1034.93C621.415,1035.64 622.96,1036.51 624.876,1037.48C625.34,1036.33 625.892,1035.49 626.018,1034.58C627.035,1027.29 631.592,1022.11 636.442,1017.14C637.484,1016.07 638.873,1015.3 640.192,1014.56C642.328,1013.34 644.67,1013.09 646.769,1014.42C649.547,1016.17 652.397,1017.96 654.758,1020.21C662.569,1027.67 668.779,1036.44 674.581,1045.49C676.372,1048.29 677.853,1051.28 679.705,1054.04C687.176,1065.14 690.806,1077.48 691.924,1090.7C694.146,1116.98 699.059,1142.8 705.118,1168.43C705.411,1169.67 705.856,1170.96 705.725,1172.18C705.57,1173.61 705.082,1175.12 704.336,1176.35C703.558,1177.63 702.311,1178.63 701.251,1179.74C676.487,1205.57 651.721,1231.41 626.955,1257.24C626.071,1258.16 625.057,1258.99 624.312,1260.01C621.386,1264.03 617.723,1263.91 613.392,1262.61C583.523,1253.62 555.929,1240 530.621,1221.83C525.042,1217.82 519.844,1213.21 514.861,1208.47C508.661,1202.57 504.371,1195.27 501.526,1187.22C497.045,1174.54 498.419,1162.59 506.598,1151.67C507.211,1150.85 507.76,1149.97 508.461,1149.23C510.535,1147.06 511.179,1144.58 511.023,1141.55C510.196,1125.51 518.02,1114.26 531.283,1106.39C534.505,1104.47 538.343,1103.6 542.26,1102.11Z" style="fill:rgb(189,112,62);fill-rule:nonzero;"/>
        <clipPath id="_clip5">
            <path d="M542.26,1102.11C546.974,1081.27 560.958,1070.83 580.667,1065.92C580.848,1064.3 581.095,1062.61 581.217,1060.91C582.24,1046.59 592.83,1035.06 607.136,1032.84C611.545,1032.16 615.767,1033.16 619.802,1034.93C621.415,1035.64 622.96,1036.51 624.876,1037.48C625.34,1036.33 625.892,1035.49 626.018,1034.58C627.035,1027.29 631.592,1022.11 636.442,1017.14C637.484,1016.07 638.873,1015.3 640.192,1014.56C642.328,1013.34 644.67,1013.09 646.769,1014.42C649.547,1016.17 652.397,1017.96 654.758,1020.21C662.569,1027.67 668.779,1036.44 674.581,1045.49C676.372,1048.29 677.853,1051.28 679.705,1054.04C687.176,1065.14 690.806,1077.48 691.924,1090.7C694.146,1116.98 699.059,1142.8 705.118,1168.43C705.411,1169.67 705.856,1170.96 705.725,1172.18C705.57,1173.61 705.082,1175.12 704.336,1176.35C703.558,1177.63 702.311,1178.63 701.251,1179.74C676.487,1205.57 651.721,1231.41 626.955,1257.24C626.071,1258.16 625.057,1258.99 624.312,1260.01C621.386,1264.03 617.723,1263.91 613.392,1262.61C583.523,1253.62 555.929,1240 530.621,1221.83C525.042,1217.82 519.844,1213.21 514.861,1208.47C508.661,1202.57 504.371,1195.27 501.526,1187.22C497.045,1174.54 498.419,1162.59 506.598,1151.67C507.211,1150.85 507.76,1149.97 508.461,1149.23C510.535,1147.06 511.179,1144.58 511.023,1141.55C510.196,1125.51 518.02,1114.26 531.283,1106.39C534.505,1104.47 538.343,1103.6 542.26,1102.11Z" clip-rule="nonzero"/>
        </clipPath>
        <g clip-path="url(#_clip5)">
            <path d="M632.971,1077.69C631.813,1077.69 630.66,1076.72 630.138,1074.88C628.12,1067.77 626.082,1060.65 624.51,1053.44C623.281,1047.79 622.506,1042.05 622.515,1036.26C623.255,1036.64 624.029,1037.05 624.876,1037.48C625.34,1036.33 625.892,1035.49 626.018,1034.58C626.194,1033.32 626.476,1032.12 626.847,1030.98C627.058,1031.87 627.165,1032.8 627.244,1033.72C628.357,1046.73 630.629,1059.51 634.669,1071.96C634.826,1072.44 635.031,1072.92 635.139,1073.41C635.474,1074.93 635.742,1076.47 634.032,1077.41C633.691,1077.6 633.331,1077.69 632.971,1077.69Z" style="fill:rgb(163,95,52);fill-rule:nonzero;"/>
        </g>
        <path d="M1286.5,318.406C1285.99,318.406 1285.5,318.172 1285.1,317.551C1284.27,316.294 1285.01,315.072 1286.01,314.095C1289.64,310.551 1293.89,308.042 1298.7,306.496C1302.93,305.139 1307.11,304.443 1311.26,304.443C1316.83,304.443 1322.32,305.702 1327.73,308.309C1329.38,309.104 1329.36,309.146 1331.06,312.892C1330.15,312.892 1329.31,313.003 1328.54,313.003C1328.08,313.003 1327.65,312.963 1327.25,312.834C1324.76,312.045 1322.45,310.672 1319.94,310.028C1316.76,309.212 1313.65,308.797 1310.62,308.797C1303.63,308.797 1297.04,311.005 1290.93,315.597C1290.09,316.225 1289.34,316.975 1288.49,317.577C1287.86,318.019 1287.16,318.406 1286.5,318.406Z" style="fill:rgb(125,68,36);fill-rule:nonzero;"/>
        <path d="M898.176,1297.78C897.735,1294.04 895.613,1291.51 893.36,1289.29C889.251,1285.26 885.02,1281.3 880.513,1277.72C870.736,1269.97 860.926,1262.27 852.097,1253.41C846.533,1247.82 841.358,1241.92 837.685,1234.89C836.301,1232.24 835.168,1229.45 834.06,1226.67C832.221,1222.05 832.974,1217.56 835.164,1213.29C838.414,1206.95 844.26,1204.12 851.28,1205.39C852.639,1205.63 853.983,1206 855.31,1206.39C879.43,1213.56 903.621,1220.56 926.853,1230.34C937.486,1234.82 948,1239.64 958.296,1244.85C970.094,1250.81 980.845,1258.49 990.599,1267.4C1002.88,1278.62 1014.8,1290.21 1026.97,1301.56C1039.13,1312.9 1051.39,1324.13 1063.61,1335.41C1066.8,1338.35 1066.98,1338.57 1065.33,1342.49C1059.7,1355.9 1053.97,1369.28 1048.28,1382.67C1035.73,1412.22 1023.18,1441.76 1010.62,1471.3C1009.64,1473.62 1008.54,1475.88 1007.44,1478.28C1003.29,1478.5 999.48,1478.89 995.587,1478.42C982.939,1476.9 970.22,1476.95 957.553,1477.74C938.422,1478.93 919.314,1480.54 900.213,1482.16C881.595,1483.73 863.302,1481.7 845.306,1477.14C831.407,1473.61 817.918,1468.82 805.438,1461.53C801.018,1458.95 796.842,1456.06 793.386,1452.29C791.527,1450.26 789.773,1448.05 788.424,1445.66C786.71,1442.63 785.64,1439.33 786.397,1435.69C786.668,1434.38 786.638,1433.02 786.764,1431.45C784.426,1430.52 782.318,1429.66 780.193,1428.83C768.043,1424.14 756.64,1418.07 746.591,1409.76C741.988,1405.95 737.766,1401.62 733.752,1397.18C728.946,1391.87 726.801,1385.31 726.167,1378.21C725.65,1372.44 727.649,1367.81 732.207,1364.27C733.637,1363.16 735.105,1362.09 736.85,1360.79C734.994,1359.24 733.363,1357.98 731.848,1356.6C727.423,1352.54 722.847,1348.63 718.697,1344.31C712.87,1338.24 708.426,1331.21 706.206,1323.01C705.43,1320.14 704.889,1317.12 704.867,1314.16C704.792,1303.53 710.551,1295.7 720.677,1292.22C725.753,1290.48 730.931,1289.5 736.337,1290.05C737.372,1290.16 738.417,1290.15 739.659,1290.15C740.279,1290.14 740.946,1290.14 741.686,1290.15C740.88,1288.05 740.283,1286.65 739.802,1285.21C738.779,1282.16 737.533,1279.14 736.887,1276C735.377,1268.66 737.932,1262.83 744.172,1258.69C747.903,1256.21 751.945,1254.78 756.548,1255.02C761.436,1255.26 766.203,1256.06 770.764,1257.78C777.672,1260.39 784.606,1262.96 791.371,1265.91C806.609,1272.56 821.685,1279.58 836.955,1286.15C845.428,1289.8 854.074,1293.09 862.79,1296.12C872.966,1299.65 883.471,1300.83 894.183,1298.89C895.489,1298.66 896.751,1298.18 898.176,1297.78Z" style="fill:rgb(189,112,62);fill-rule:nonzero;"/>
        <clipPath id="_clip6">
            <path d="M898.176,1297.78C897.735,1294.04 895.613,1291.51 893.36,1289.29C889.251,1285.26 885.02,1281.3 880.513,1277.72C870.736,1269.97 860.926,1262.27 852.097,1253.41C846.533,1247.82 841.358,1241.92 837.685,1234.89C836.301,1232.24 835.168,1229.45 834.06,1226.67C832.221,1222.05 832.974,1217.56 835.164,1213.29C838.414,1206.95 844.26,1204.12 851.28,1205.39C852.639,1205.63 853.983,1206 855.31,1206.39C879.43,1213.56 903.621,1220.56 926.853,1230.34C937.486,1234.82 948,1239.64 958.296,1244.85C970.094,1250.81 980.845,1258.49 990.599,1267.4C1002.88,1278.62 1014.8,1290.21 1026.97,1301.56C1039.13,1312.9 1051.39,1324.13 1063.61,1335.41C1066.8,1338.35 1066.98,1338.57 1065.33,1342.49C1059.7,1355.9 1053.97,1369.28 1048.28,1382.67C1035.73,1412.22 1023.18,1441.76 1010.62,1471.3C1009.64,1473.62 1008.54,1475.88 1007.44,1478.28C1003.29,1478.5 999.48,1478.89 995.587,1478.42C982.939,1476.9 970.22,1476.95 957.553,1477.74C938.422,1478.93 919.314,1480.54 900.213,1482.16C881.595,1483.73 863.302,1481.7 845.306,1477.14C831.407,1473.61 817.918,1468.82 805.438,1461.53C801.018,1458.95 796.842,1456.06 793.386,1452.29C791.527,1450.26 789.773,1448.05 788.424,1445.66C786.71,1442.63 785.64,1439.33 786.397,1435.69C786.668,1434.38 786.638,1433.02 786.764,1431.45C784.426,1430.52 782.318,1429.66 780.193,1428.83C768.043,1424.14 756.64,1418.07 746.591,1409.76C741.988,1405.95 737.766,1401.62 733.752,1397.18C728.946,1391.87 726.801,1385.31 726.167,1378.21C725.65,1372.44 727.649,1367.81 732.207,1364.27C733.637,1363.16 735.105,1362.09 736.85,1360.79C734.994,1359.24 733.363,1357.98 731.848,1356.6C727.423,1352.54 722.847,1348.63 718.697,1344.31C712.87,1338.24 708.426,1331.21 706.206,1323.01C705.43,1320.14 704.889,1317.12 704.867,1314.16C704.792,1303.53 710.551,1295.7 720.677,1292.22C725.753,1290.48 730.931,1289.5 736.337,1290.05C737.372,1290.16 738.417,1290.15 739.659,1290.15C740.279,1290.14 740.946,1290.14 741.686,1290.15C740.88,1288.05 740.283,1286.65 739.802,1285.21C738.779,1282.16 737.533,1279.14 736.887,1276C735.377,1268.66 737.932,1262.83 744.172,1258.69C747.903,1256.21 751.945,1254.78 756.548,1255.02C761.436,1255.26 766.203,1256.06 770.764,1257.78C777.672,1260.39 784.606,1262.96 791.371,1265.91C806.609,1272.56 821.685,1279.58 836.955,1286.15C845.428,1289.8 854.074,1293.09 862.79,1296.12C872.966,1299.65 883.471,1300.83 894.183,1298.89C895.489,1298.66 896.751,1298.18 898.176,1297.78Z" clip-rule="nonzero"/>
        </clipPath>
        <g clip-path="url(#_clip6)">
            <path d="M855.011,1402.3C854.151,1402.3 853.296,1402.25 852.456,1402.13C814.127,1396.84 777.603,1386.07 744.131,1366.15C741.457,1364.56 738.797,1362.95 736.146,1361.32C736.376,1361.14 736.61,1360.97 736.85,1360.79C734.994,1359.24 733.363,1357.98 731.848,1356.6C729.591,1354.53 727.294,1352.5 725.035,1350.43C725.13,1350.44 725.221,1350.46 725.307,1350.49C726.814,1351.01 728.226,1351.84 729.625,1352.63C734.847,1355.59 740.058,1358.58 745.255,1361.59C779.318,1381.3 816.092,1392.73 855.031,1397.56C856.176,1397.7 857.329,1397.79 858.464,1397.99C859.768,1398.22 860.609,1399.12 860.363,1400.37C860.228,1401.05 859.295,1402 858.638,1402.07C857.443,1402.2 856.223,1402.3 855.011,1402.3Z" style="fill:rgb(163,95,52);fill-rule:nonzero;"/>
            <path d="M849.401,1354.87C847.832,1354.67 846.184,1354.71 844.702,1354.23C837.473,1351.89 830.138,1349.78 823.113,1346.93C794.824,1335.43 769.324,1319.54 747.517,1297.98C744.826,1295.32 742.03,1292.76 739.294,1290.15L739.659,1290.15C739.912,1290.15 740.172,1290.14 740.442,1290.14C740.835,1290.14 741.248,1290.15 741.686,1290.15C740.88,1288.05 740.283,1286.65 739.802,1285.21C739.776,1285.14 739.75,1285.06 739.724,1284.98C745.356,1289.92 751.012,1294.82 756.516,1299.9C777.314,1319.07 801.295,1333.07 827.437,1343.51C833.2,1345.81 839.237,1347.42 845.132,1349.4C846.856,1349.97 848.569,1350.63 850.188,1351.44C850.604,1351.65 850.886,1352.67 850.777,1353.22C850.67,1353.77 849.988,1354.21 849.401,1354.87Z" style="fill:rgb(163,95,52);fill-rule:nonzero;"/>
            <path d="M875.36,1444.98C872.601,1444.84 869.604,1444.74 866.617,1444.52C841,1442.67 815.711,1438.87 791.008,1431.65C788.797,1431 786.607,1430.27 784.442,1429.48C783.277,1429.06 782.352,1428.13 782.975,1426.88C783.215,1426.4 784.267,1426.07 785.028,1426.07C785.113,1426.07 785.195,1426.07 785.272,1426.08C786.865,1426.26 788.421,1426.77 789.99,1427.16C814.679,1433.25 839.621,1437.83 865.026,1439.58C868.709,1439.84 872.404,1439.91 876.091,1440.11C876.988,1440.16 877.955,1440.23 878.737,1440.6C879.252,1440.85 879.751,1441.65 879.782,1442.23C879.811,1442.79 879.374,1443.66 878.894,1443.91C877.897,1444.41 876.735,1444.58 875.36,1444.98Z" style="fill:rgb(163,95,52);fill-rule:nonzero;"/>
        </g>
        <path d="M658.129,428.438C654.668,424.278 647.367,416.776 635.67,412.922C629.738,410.966 619.384,407.554 608.996,412.549C599.907,416.918 596.019,425.211 594.545,428.354C589.97,438.114 591.078,447.171 591.812,451.002C594.143,463.174 601.82,470.303 604.43,472.656C614.401,481.649 625.749,482.994 629.551,483.277C632.227,534.067 626.568,575.071 621.012,602.652C610.185,656.398 599.215,707.147 556.985,735.138C543.08,744.355 529.589,748.583 520.719,750.691C536.962,761.765 631.39,823.931 745.277,793.979C797.642,780.208 834.04,752.242 854.223,733.698C847.958,733.563 827.793,732.335 809.657,717.14C786.489,697.728 784.494,652.836 784.225,648.094C791.115,645.156 801.662,640.017 812.942,631.497C858.673,596.959 870.495,541.588 876.441,513.738C879.323,489.052 882.205,464.366 885.087,439.68C871.248,434.728 845.478,423.384 822.197,398.383C804.068,378.913 794.688,358.936 789.872,346.137C782.098,359.173 767.646,379.521 743.25,397.077C708.99,421.729 674.373,427.02 658.129,428.438Z" style="fill:rgb(189,112,62);fill-rule:nonzero;"/>
        <clipPath id="_clip7">
            <path d="M658.129,428.438C654.668,424.278 647.367,416.776 635.67,412.922C629.738,410.966 619.384,407.554 608.996,412.549C599.907,416.918 596.019,425.211 594.545,428.354C589.97,438.114 591.078,447.171 591.812,451.002C594.143,463.174 601.82,470.303 604.43,472.656C614.401,481.649 625.749,482.994 629.551,483.277C632.227,534.067 626.568,575.071 621.012,602.652C610.185,656.398 599.215,707.147 556.985,735.138C543.08,744.355 529.589,748.583 520.719,750.691C536.962,761.765 631.39,823.931 745.277,793.979C797.642,780.208 834.04,752.242 854.223,733.698C847.958,733.563 827.793,732.335 809.657,717.14C786.489,697.728 784.494,652.836 784.225,648.094C791.115,645.156 801.662,640.017 812.942,631.497C858.673,596.959 870.495,541.588 876.441,513.738C879.323,489.052 882.205,464.366 885.087,439.68C871.248,434.728 845.478,423.384 822.197,398.383C804.068,378.913 794.688,358.936 789.872,346.137C782.098,359.173 767.646,379.521 743.25,397.077C708.99,421.729 674.373,427.02 658.129,428.438Z" clip-rule="nonzero"/>
        </clipPath>
        <g clip-path="url(#_clip7)">
            <path d="M836.503,441.817C832.262,442.054 828.309,442.548 825.169,445.064C821.864,447.713 821.383,450.506 824.136,453.463C826.564,456.071 829.981,457.827 834.036,458.541C838.784,459.377 843.645,460.116 848.512,460.3C856.716,460.611 864.868,461 872.887,462.333C874.449,462.593 876.14,462.726 877.726,462.58C882.132,462.173 883.321,460.034 880.528,457.499C878.984,456.098 877.257,454.743 875.31,453.678C865.772,448.465 855.253,444.725 843.759,442.575C841.406,442.135 838.925,442.061 836.503,441.817Z" style="fill:rgb(40,43,46);fill-rule:nonzero;"/>
            <path d="M712.856,433.91C712.147,434.063 709.969,434.881 707.647,436.452C704.162,438.813 704.69,442.46 708.697,443.842C710.268,444.384 711.995,444.606 713.678,444.806C718.502,445.38 723.351,445.804 728.169,446.406C734.431,447.188 740.69,447.99 746.915,448.962C751.737,449.715 756.542,450.332 761.451,449.603C763.139,449.353 764.844,449.056 766.467,448.554C769.713,447.552 772.104,445.664 772.577,442.29C773.07,438.771 771.726,435.807 768.532,434.144C764.325,431.955 760.329,431.166 759.749,431.09C742.076,428.765 719.924,432.372 712.856,433.91Z" style="fill:rgb(40,43,46);fill-rule:nonzero;"/>
            <path d="M751.169,470.608C751.454,468.081 750.932,465.436 749.382,463.046C746.873,459.177 742.591,458.177 738.648,460.498C732.795,463.941 730.459,473.346 734.01,479.172C736.59,483.407 741.643,484.458 745.664,481.478C749.186,478.87 750.847,475.217 751.169,470.608Z" style="fill-rule:nonzero;"/>
            <path d="M837.58,484.224C837.512,486.681 837.848,489.037 839.224,491.15C841.507,494.655 845.774,495.49 849.19,493.093C854.398,489.437 856.315,480.535 853.047,475.175C850.705,471.335 846.293,470.407 842.708,473.14C839.082,475.905 837.715,479.802 837.58,484.224Z" style="fill-rule:nonzero;"/>
            <path d="M696.981,554.188C684.561,554.188 673.513,545.241 671.326,532.555C668.91,518.533 678.238,505.213 692.28,502.637C693.938,502.333 695.58,502.186 697.194,502.186C715.104,502.186 729.459,520.274 720.077,542.397C713.065,550.683 704.755,554.188 696.981,554.188Z" style="fill:rgb(167,87,44);fill-rule:nonzero;"/>
            <path d="M859.835,569.592C853.434,565.846 848.656,559.409 847.298,551.529C844.882,537.507 854.21,524.187 868.251,521.611C869.908,521.307 871.551,521.16 873.165,521.16C873.721,521.16 874.275,521.178 874.824,521.212C871.885,534.464 867.547,551.727 859.835,569.592Z" style="fill:rgb(167,87,44);fill-rule:nonzero;"/>
            <path d="M791.894,594.887C808.204,592.551 816.636,577.979 817.712,576.049C810.408,576.495 802.324,576.581 793.597,576.043C777.49,575.049 763.502,572.193 752.122,568.984C758.973,586.746 775.899,597.177 791.894,594.887Z" style="fill:white;fill-rule:nonzero;"/>
            <path d="M796.803,700.517C782.198,700.489 762.753,697.9 742.821,687.537C691.528,660.867 680.987,605.577 679.771,598.572C687.428,608.971 710.161,636.853 749.148,645.802C758.076,647.852 766.4,648.574 773.774,648.574C777.518,648.574 781.018,648.388 784.225,648.094C784.432,651.747 785.663,679.216 796.803,700.517Z" style="fill:rgb(147,82,44);fill-rule:nonzero;"/>
        </g>
        <path d="M797.789,552.613C792.576,552.613 788.164,551.121 786.031,550.4C783.294,549.475 779.227,547.746 774.874,544.399C779.289,546.24 785.144,547.908 791.984,547.908L792.121,547.908C793.131,547.904 799.087,547.83 804.926,545.097C806.787,544.227 808.533,543.134 809.525,541.205C810.463,539.382 810.338,537.568 810.27,536.809C809.895,532.549 806.069,501.213 800.603,458.241C803.595,473.625 806.343,485.743 808.325,494.05C810.611,503.637 812.484,513.318 814.437,522.978C815.356,527.533 816.237,532.157 816.445,536.78C816.591,539.995 816.017,542.623 814.733,544.787C812.632,548.333 809.258,549.862 807.191,550.75C803.978,552.131 800.754,552.613 797.789,552.613Z" style="fill:rgb(125,68,36);fill-rule:nonzero;"/>
        <path d="M643.938,437.24C643.29,437.24 642.608,436.861 642.084,436.333C641.277,435.522 640.672,434.511 639.937,433.622C634.506,427.045 628.224,423.142 620.362,423.142C617.446,423.142 614.312,423.679 610.923,424.816C610.51,424.616 609.148,424.304 608.325,423.465C607.551,422.677 608.467,420.771 609.997,420.212C612.57,419.274 615.222,418.101 617.893,417.956C618.527,417.921 619.152,417.904 619.769,417.904C630.455,417.904 638.675,423.017 644.946,431.78C645.344,432.337 645.851,433.011 645.841,433.622C645.823,434.663 645.739,435.958 645.127,436.672C644.782,437.073 644.368,437.24 643.938,437.24Z" style="fill:rgb(125,68,36);fill-rule:nonzero;"/>
        <path d="M1048.16,801.79C1044.55,823.636 1040.98,844.562 1041.09,865.871C1041.2,889.341 1048.65,910.426 1062.26,929.443C1068.08,937.577 1075.73,943.362 1084.77,947.469C1097.02,953.041 1109.36,958.52 1120.77,965.695C1133.43,973.653 1145.81,982.059 1158.31,990.271C1158.52,990.408 1158.71,990.573 1158.92,990.71C1166.47,995.64 1167.17,995.787 1173.98,990.256C1186.22,980.323 1197.78,969.696 1206.44,956.32C1216.32,941.067 1218.88,924.479 1215.33,906.834C1214.25,901.417 1212.4,896.219 1209.14,891.687C1207.43,889.303 1206.95,886.941 1207.28,884C1208.21,875.817 1208.71,867.593 1207.49,859.376C1207.24,857.65 1207.11,855.887 1206.68,854.206C1199.3,825.602 1185.08,801.804 1159.18,786.044C1146.49,778.321 1133.2,772.302 1118.51,769.562C1099.8,766.068 1081.76,767.756 1064.63,776.48C1062.41,777.608 1060.29,778.944 1058.22,780.333C1054.13,783.085 1051.36,786.721 1050.48,791.745C1049.83,795.426 1048.81,799.04 1048.16,801.79Z" style="fill:rgb(40,43,46);fill-rule:nonzero;"/>
        <path d="M1216.11,888.834C1216.15,889.304 1216.02,889.935 1216.28,890.214C1217.44,891.485 1218.7,892.673 1219.95,893.862C1224.66,898.343 1228.6,903.357 1230.94,909.512C1231.38,910.645 1231.95,911.787 1232.72,912.701C1233.07,913.113 1234.17,913.235 1234.74,913.013C1235.31,912.791 1235.76,912.022 1236.06,911.398C1236.24,911.006 1236.17,910.406 1236.03,909.953C1233.27,900.875 1228.23,893.479 1219.92,888.594C1219.14,888.133 1218.09,888.035 1217.15,887.969C1216.83,887.945 1216.46,888.528 1216.11,888.834Z" style="fill:rgb(40,43,46);fill-rule:nonzero;"/>
        <path d="M1223.34,852.557C1222.48,853.658 1221.42,854.426 1221.24,855.361C1220.73,858.015 1220.85,860.803 1220.22,863.418C1219.25,867.484 1217.83,871.444 1216.65,875.461C1216.23,876.859 1215.81,878.282 1215.69,879.718C1215.65,880.244 1216.39,881.11 1216.96,881.329C1217.51,881.536 1218.46,881.295 1218.93,880.894C1219.66,880.279 1220.4,879.438 1220.65,878.555C1222.29,872.624 1223.96,866.688 1225.3,860.683C1225.89,858.074 1225.64,855.316 1223.34,852.557Z" style="fill:rgb(40,43,46);fill-rule:nonzero;"/>
        <path d="M1085.97,901.618C1088.34,895.474 1090.49,889.927 1092.64,884.385C1096.57,874.27 1098.91,863.914 1097.82,852.951C1097.13,845.887 1095.2,839.287 1091.54,833.169C1082.54,818.135 1072,804.235 1060.54,791.016C1059.72,790.075 1058.87,789.159 1057.93,788.336C1055.85,786.492 1053.45,786.002 1051.06,787.548C1048.35,789.302 1045.71,791.197 1043.22,793.246C1039.75,796.096 1036.62,799.37 1033.05,802.069C1022.58,809.977 1010.91,814.357 997.568,813.59C985.265,812.883 978.128,822.283 981.952,834.07C982.331,835.239 982.874,836.355 983.524,837.943C974.924,847.63 967.335,858.007 964.339,871.032C962.545,878.833 960.791,886.622 961.368,894.686C961.962,902.955 962.935,912.983 966.478,920.698C967.642,920.796 969.058,920.977 970.477,921.024C980.208,921.35 989.84,922.433 999.439,924.136C1016.66,927.192 1033.59,931.458 1050.36,936.309C1062.09,939.701 1073.8,943.24 1084.99,948.23C1094.1,952.297 1103.79,948.738 1108.07,939.656C1110.85,933.742 1111.24,927.639 1108.99,921.47C1106.4,914.365 1101.71,909.052 1094.96,905.644C1092.31,904.309 1089.54,903.21 1085.97,901.618Z" style="fill:rgb(184,103,50);fill-rule:nonzero;"/>
        <clipPath id="_clip8">
            <path d="M1085.97,901.618C1088.34,895.474 1090.49,889.927 1092.64,884.385C1096.57,874.27 1098.91,863.914 1097.82,852.951C1097.13,845.887 1095.2,839.287 1091.54,833.169C1082.54,818.135 1072,804.235 1060.54,791.016C1059.72,790.075 1058.87,789.159 1057.93,788.336C1055.85,786.492 1053.45,786.002 1051.06,787.548C1048.35,789.302 1045.71,791.197 1043.22,793.246C1039.75,796.096 1036.62,799.37 1033.05,802.069C1022.58,809.977 1010.91,814.357 997.568,813.59C985.265,812.883 978.128,822.283 981.952,834.07C982.331,835.239 982.874,836.355 983.524,837.943C974.924,847.63 967.335,858.007 964.339,871.032C962.545,878.833 960.791,886.622 961.368,894.686C961.962,902.955 962.935,912.983 966.478,920.698C967.642,920.796 969.058,920.977 970.477,921.024C980.208,921.35 989.84,922.433 999.439,924.136C1016.66,927.192 1033.59,931.458 1050.36,936.309C1062.09,939.701 1073.8,943.24 1084.99,948.23C1094.1,952.297 1103.79,948.738 1108.07,939.656C1110.85,933.742 1111.24,927.639 1108.99,921.47C1106.4,914.365 1101.71,909.052 1094.96,905.644C1092.31,904.309 1089.54,903.21 1085.97,901.618Z" clip-rule="nonzero"/>
        </clipPath>
        <g clip-path="url(#_clip8)">
            <path d="M982.107,862.355C975.951,862.354 971.101,859.626 969.002,858.28C969.002,858.279 969.003,858.279 969.003,858.278C972.008,852.328 975.922,846.911 980.236,841.751L980.237,841.751C981.098,844.391 982.226,847.32 983.717,850.422C985.701,854.548 987.865,858.016 989.88,860.837C988.5,861.393 986.88,861.88 985.043,862.145C984.036,862.29 983.057,862.355 982.107,862.355Z" style="fill:rgb(143,75,35);fill-rule:nonzero;"/>
            <path d="M1028.32,900.786C1026.73,900.786 1025.09,900.576 1023.45,900.137C1014.01,897.609 1008.53,888.188 1010.94,878.632C1012.97,870.569 1020.18,865.186 1028.15,865.186C1029.5,865.186 1030.87,865.341 1032.24,865.663C1041.99,867.954 1047.82,877.614 1045.37,887.4C1043.33,895.542 1036.3,900.787 1028.32,900.786Z" style="fill:rgb(162,80,35);fill-rule:nonzero;"/>
            <path d="M1048.97,836.438C1049.19,836.629 1049.44,836.763 1049.73,836.769C1050.25,836.779 1050.7,836.343 1050.87,835.852C1051.04,835.36 1050.99,834.824 1050.95,834.307C1050.55,830.135 1049.96,825.958 1048.71,821.961C1047.45,817.964 1045.5,814.133 1042.64,811.074C1041.72,810.088 1040.68,809.171 1039.44,808.635C1034.56,806.521 1031.81,812.472 1033.58,816.398C1034.28,817.952 1035.33,819.422 1036.49,820.674C1038.5,822.823 1040.56,824.63 1042.25,827.034C1044.3,829.941 1046.34,832.848 1048.39,835.755C1048.56,835.994 1048.75,836.245 1048.97,836.438Z" style="fill:rgb(40,43,46);fill-rule:nonzero;"/>
            <path d="M1100.67,934.908C1100.6,934.908 1100.53,934.905 1100.46,934.901C1099.09,934.814 1098.21,933.875 1098.11,932.495C1097.99,930.774 1098.25,929.01 1097.99,927.32C1097.1,921.464 1093.49,917.758 1088.54,916.955C1087.3,916.87 1086.54,916.907 1085.83,916.749C1084.45,916.447 1083.72,915.498 1083.75,914.104C1083.78,912.636 1084.9,912.013 1086.09,911.569C1086.53,911.401 1087.06,911.393 1087.55,911.392L1087.56,911.392C1100.09,911.392 1105.54,925.444 1103.27,932.937C1102.89,934.196 1101.91,934.908 1100.67,934.908Z" style="fill:rgb(121,63,29);fill-rule:nonzero;"/>
            <path d="M1021.36,827.127C1020.71,831.664 1023.95,837.845 1028.36,840.239C1029.57,840.896 1030.94,840.62 1031.63,839.44C1032.04,838.746 1031.79,837.654 1031.78,836.741C1031.78,836.522 1031.61,836.248 1031.44,836.095C1028.28,833.35 1026.49,829.977 1026.25,825.725C1026.21,824.972 1025.21,823.815 1024.48,823.659C1023.14,823.373 1022.25,824.438 1021.78,825.697C1021.61,826.162 1021.5,826.649 1021.36,827.127Z" style="fill-rule:nonzero;"/>
        </g>
    </g>
</svg>
